<?xml version="1.0" encoding="UTF-8"?>
<!DOCTYPE svg PUBLIC "-//W3C//DTD SVG 1.1//EN" "http://www.w3.org/Graphics/SVG/1.1/DTD/svg11.dtd">
<!-- Creator: CorelDRAW -->
<svg xmlns="http://www.w3.org/2000/svg" xml:space="preserve" width="17.4998mm" height="17.4997mm" version="1.1" style="shape-rendering:geometricPrecision; text-rendering:geometricPrecision; image-rendering:optimizeQuality; fill-rule:evenodd; clip-rule:evenodd"
viewBox="0 0 1750 1749.99"
 xmlns:xlink="http://www.w3.org/1999/xlink"
 xmlns:xodm="http://www.corel.com/coreldraw/odm/2003">
 <defs>
  <style type="text/css">
   <![CDATA[
    .str0 {stroke:#94A3BD;stroke-width:150;stroke-miterlimit:22.9256}
    .fil0 {fill:none;fill-rule:nonzero}
    .fil1 {fill:#94A3BD;fill-rule:nonzero}
   ]]>
  </style>
 </defs>
 <g id="Слой_x0020_1">
  <metadata id="CorelCorpID_0Corel-Layer"/>
  <g id="_2854454608848">
   <path class="fil0 str0" d="M876.13 75c-104.92,0 -208.79,20.69 -305.71,60.91 -96.92,40.21 -185.01,99.14 -259.19,173.42 -149.8,150 -233.96,353.48 -233.96,565.65 -0.7,184.7 63.16,363.86 180.54,506.35l-159.77 160.02c-11.09,11.25 -18.62,25.53 -21.61,41.05 -2.95,15.52 -1.31,31.58 4.81,46.12 6.65,14.42 17.4,26.51 30.91,34.78 13.53,8.26 29.19,12.29 44.98,11.62l719.01 0c211.85,0 415.04,-84.26 564.88,-234.29 149.8,-150.01 233.99,-353.49 233.99,-565.65 0,-212.16 -84.19,-415.64 -233.99,-565.65 -149.83,-150.04 -353.02,-234.33 -564.88,-234.33z"/>
   <path class="fil1" d="M556.58 794.99c-15.79,0 -31.25,4.67 -44.38,13.47 -13.14,8.8 -23.39,21.3 -29.43,35.91 -6.05,14.62 -7.63,30.71 -4.54,46.19 3.06,15.53 10.69,29.8 21.84,40.99 11.19,11.19 25.43,18.78 40.92,21.87 15.48,3.09 31.54,1.51 46.16,-4.53 14.58,-6.05 27.07,-16.33 35.84,-29.47 8.77,-13.17 13.47,-28.62 13.47,-44.44 0,-21.24 -8.43,-41.56 -23.41,-56.58 -14.98,-14.98 -35.28,-23.41 -56.47,-23.41zm319.55 0c-15.82,0 -31.27,4.67 -44.41,13.47 -13.14,8.8 -23.35,21.3 -29.4,35.91 -6.04,14.62 -7.62,30.71 -4.57,46.19 3.1,15.53 10.72,29.8 21.88,40.99 11.18,11.19 25.39,18.78 40.91,21.87 15.49,3.09 31.55,1.51 46.16,-4.53 14.58,-6.05 27.05,-16.33 35.85,-29.47 8.77,-13.17 13.44,-28.62 13.44,-44.44 0,-21.24 -8.4,-41.56 -23.38,-56.58 -14.99,-14.98 -35.31,-23.41 -56.48,-23.41zm319.53 0c-15.79,0 -31.25,4.67 -44.38,13.47 -13.14,8.8 -23.39,21.3 -29.43,35.91 -6.05,14.62 -7.63,30.71 -4.54,46.19 3.09,15.53 10.68,29.8 21.87,40.99 11.16,11.19 25.4,18.78 40.89,21.87 15.48,3.09 31.58,1.51 46.16,-4.53 14.61,-6.05 27.07,-16.33 35.84,-29.47 8.77,-13.17 13.47,-28.62 13.47,-44.44 0,-21.24 -8.43,-41.56 -23.38,-56.58 -14.98,-14.98 -35.31,-23.41 -56.5,-23.41z"/>
  </g>
 </g>
</svg>
