<?xml version="1.0" encoding="UTF-8"?>
<!DOCTYPE svg PUBLIC "-//W3C//DTD SVG 1.1//EN" "http://www.w3.org/Graphics/SVG/1.1/DTD/svg11.dtd">
<!-- Creator: CorelDRAW -->
<svg xmlns="http://www.w3.org/2000/svg" xml:space="preserve" width="26.5mm" height="26.4998mm" version="1.1" style="shape-rendering:geometricPrecision; text-rendering:geometricPrecision; image-rendering:optimizeQuality; fill-rule:evenodd; clip-rule:evenodd"
viewBox="0 0 2927.24 2927.21"
 xmlns:xlink="http://www.w3.org/1999/xlink"
 xmlns:xodm="http://www.corel.com/coreldraw/odm/2003">
 <defs>
  <style type="text/css">
   <![CDATA[
    .str0 {stroke:#5051F9;stroke-width:165.69;stroke-miterlimit:22.9256}
    .fil0 {fill:none}
   ]]>
  </style>
 </defs>
 <g id="Слой_x0020_1">
  <metadata id="CorelCorpID_0Corel-Layer"/>
  <g id="_2165627313024">
   <path class="fil0 str0" d="M1660.87 2658.52c0,-49.33 -19.62,-96.67 -54.45,-131.5l-1206.14 -1206.17c-34.83,-34.84 -82.16,-54.45 -131.49,-54.45 -102.67,0 -185.94,83.27 -185.94,185.94 0,49.29 19.62,96.68 54.45,131.5l1206.09 1206.08c34.83,34.88 82.16,54.45 131.5,54.45 102.72,0.09 185.98,-83.17 185.98,-185.85z"/>
   <path class="fil0 str0" d="M400.28 1846.84c-34.83,-34.83 -82.16,-54.44 -131.49,-54.44 -102.67,0 -185.94,83.26 -185.94,185.94 0,49.33 19.62,96.67 54.45,131.5l680.05 680.07c34.88,34.88 82.22,54.45 131.5,54.45 102.77,0.09 186.03,-83.17 186.03,-185.85 0,-49.33 -19.61,-96.67 -54.44,-131.5"/>
   <polyline class="fil0 str0" points="345.84,2318.4 148.59,2515.71 411.64,2778.71 608.89,2581.41 "/>
   <path class="fil0 str0" d="M1266.38 268.79c0,49.33 19.61,96.67 54.44,131.5l1206.04 1206.12c34.88,34.83 82.22,54.45 131.5,54.45 102.77,0.04 186.03,-83.22 186.03,-185.9 0,-49.29 -19.61,-96.68 -54.44,-131.5l-1206.14 -1206.18c-34.83,-34.83 -82.22,-54.44 -131.5,-54.44 -102.67,0 -185.93,83.26 -185.93,185.94l0 0z"/>
   <path class="fil0 str0" d="M2526.96 1080.46c34.83,34.83 82.16,54.44 131.45,54.44 102.73,0 185.98,-83.26 185.98,-185.94 0,-49.33 -19.61,-96.67 -54.44,-131.5l-680.16 -680.17c-34.83,-34.83 -82.16,-54.44 -131.49,-54.44 -102.69,0 -185.94,83.26 -185.94,185.94 0,49.33 19.61,96.67 54.44,131.5"/>
   <polyline class="fil0 str0" points="2581.39,608.84 2778.64,411.59 2515.65,148.59 2318.4,345.84 "/>
   <line class="fil0 str0" x1="871.89" y1="1792.41" x2="1792.36" y2= "871.9" />
   <line class="fil0 str0" x1="1134.87" y1="2055.41" x2="2055.36" y2= "1134.9" />
  </g>
 </g>
</svg>
