<?xml version="1.0" encoding="UTF-8"?>
<!DOCTYPE svg PUBLIC "-//W3C//DTD SVG 1.1//EN" "http://www.w3.org/Graphics/SVG/1.1/DTD/svg11.dtd">
<!-- Creator: CorelDRAW -->
<svg xmlns="http://www.w3.org/2000/svg" xml:space="preserve" width="26.3477mm" height="25.912mm" version="1.1" style="shape-rendering:geometricPrecision; text-rendering:geometricPrecision; image-rendering:optimizeQuality; fill-rule:evenodd; clip-rule:evenodd"
viewBox="0 0 2627.82 2584.36"
 xmlns:xlink="http://www.w3.org/1999/xlink"
 xmlns:xodm="http://www.corel.com/coreldraw/odm/2003">
 <defs>
  <style type="text/css">
   <![CDATA[
    .str0 {stroke:#5051F9;stroke-width:149.6;stroke-miterlimit:22.9256}
    .fil0 {fill:none}
   ]]>
  </style>
 </defs>
 <g id="Слой_x0020_1">
  <metadata id="CorelCorpID_0Corel-Layer"/>
  <g id="_2165629026832">
   <path class="fil0 str0" d="M74.8 1205.8l0 54.36c0,224.6 62.48,445.07 180.91,638.17 118.43,193.11 288.41,351.69 492.05,459.13l0 152.11 1121.57 0 0 -152.11c203.64,-107.44 373.58,-266.02 492.05,-459.13 118.43,-193.1 180.91,-413.58 180.91,-638.17l0 -54.36 -2467.49 0z"/>
   <line class="fil0 str0" x1="2172.87" y1="710.14" x2="2568.21" y2= "188.61" />
   <line class="fil0 str0" x1="2029.15" y1="615.05" x2="2161.64" y2= "16.16" />
   <path class="fil0 str0" d="M257.04 1205.8c-31.18,-146.8 -11.28,-299.51 56.51,-434.27 67.84,-134.76 179.76,-243.99 318.35,-310.65 138.63,-66.65 296.11,-87.04 447.92,-57.92 151.81,29.13 289.42,106.07 391.35,218.89"/>
   <path class="fil0 str0" d="M488.36 1205.8c-31.8,-99.98 -27.6,-207.5 11.94,-304.9 39.54,-97.37 112.05,-178.89 205.68,-231.1 93.57,-52.26 202.75,-72.14 309.54,-56.42 106.8,15.72 204.93,66.1 278.28,142.9"/>
   <path class="fil0 str0" d="M734.41 1205.8c-19.42,-27.85 -32.72,-59.28 -39.01,-92.36 -6.32,-33.06 -5.53,-66.99 2.3,-99.77 7.87,-32.76 22.59,-63.56 43.29,-90.55 20.7,-26.99 46.97,-49.56 77.09,-66.26 30.11,-16.71 63.45,-27.25 97.94,-30.89 34.5,-3.68 69.43,-0.39 102.55,9.59 33.12,9.98 63.81,26.52 90.04,48.49 26.26,22.01 47.53,49 62.52,79.33"/>
   <path class="fil0 str0" d="M1914.88 1205.8c9.25,-24.58 12.25,-51.02 8.72,-76.98 -3.5,-26 -13.44,-50.81 -28.97,-72.26 -15.52,-21.46 -36.12,-38.99 -60.14,-51.06 -23.97,-12.12 -50.63,-18.42 -77.69,-18.42 -27.02,0 -53.68,6.3 -77.69,18.42 -23.97,12.08 -44.62,29.6 -60.14,51.06 -15.48,21.45 -25.42,46.26 -28.96,72.26 -3.54,25.96 -0.53,52.39 8.76,76.98"/>
   <path class="fil0 str0" d="M2145.54 1205.8c8.58,-54.19 4.95,-109.53 -10.57,-162.22 -15.57,-52.73 -42.67,-101.56 -79.55,-143.16 -36.84,-41.59 -82.52,-75 -133.95,-97.87 -51.43,-22.92 -107.37,-34.75 -163.98,-34.75 -56.56,0 -112.49,11.83 -163.93,34.75 -51.42,22.87 -97.11,56.28 -133.99,97.87 -36.84,41.6 -63.95,90.43 -79.51,143.16 -15.57,52.69 -19.15,108.03 -10.57,162.22"/>
   <path class="fil0 str0" d="M2371.25 1205.8c1.37,-17.64 2.78,-35.98 2.78,-54.32 0,-158.49 -65,-310.48 -180.68,-422.53 -115.68,-112.06 -272.58,-175.03 -436.2,-175.03 -163.58,0 -320.51,62.96 -436.2,175.03 -115.68,112.05 -180.64,264.04 -180.64,422.53 0,18.33 1.37,36.67 2.78,54.32"/>
  </g>
 </g>
</svg>
