<?xml version="1.0" encoding="UTF-8"?>
<!DOCTYPE svg PUBLIC "-//W3C//DTD SVG 1.1//EN" "http://www.w3.org/Graphics/SVG/1.1/DTD/svg11.dtd">
<!-- Creator: CorelDRAW -->
<svg xmlns="http://www.w3.org/2000/svg" xml:space="preserve" width="109px" height="109px" version="1.1" style="shape-rendering:geometricPrecision; text-rendering:geometricPrecision; image-rendering:optimizeQuality; fill-rule:evenodd; clip-rule:evenodd"
viewBox="0 0 109 109"
 xmlns:xlink="http://www.w3.org/1999/xlink"
 xmlns:xodm="http://www.corel.com/coreldraw/odm/2003">
 <defs>
  <style type="text/css">
   <![CDATA[
    .fil0 {fill:#4B5563;fill-rule:nonzero}
    .fil1 {fill:white;fill-rule:nonzero}
   ]]>
  </style>
 </defs>
 <g id="Слой_x0020_1">
  <metadata id="CorelCorpID_0Corel-Layer"/>
  <path class="fil0" d="M9.34 0l90.32 0c5.16,0 9.34,4.18 9.34,9.34l0 90.32c0,5.16 -4.18,9.34 -9.34,9.34l-90.32 0c-5.16,0 -9.34,-4.18 -9.34,-9.34l0 -90.32c0,-5.16 4.18,-9.34 9.34,-9.34z"/>
  <path class="fil1" d="M41.13 72.83l0 -36.66 11.72 0c2.54,0 4.78,0.28 6.72,0.84 1.98,0.56 3.54,1.51 4.66,2.86 1.16,1.31 1.73,3.08 1.73,5.33 0,1.71 -0.44,3.34 -1.34,4.87 -0.9,1.5 -2.15,2.52 -3.76,3.09l0 0.22c2.02,0.45 3.68,1.4 4.99,2.86 1.35,1.42 2.02,3.36 2.02,5.83 0,2.43 -0.62,4.45 -1.85,6.05 -1.2,1.61 -2.86,2.81 -4.99,3.59 -2.13,0.75 -4.54,1.12 -7.23,1.12l-12.67 0zm6.5 -21.52l4.66 0c2.54,0 4.39,-0.47 5.55,-1.41 1.15,-0.93 1.73,-2.18 1.73,-3.75 0,-1.8 -0.59,-3.07 -1.79,-3.81 -1.2,-0.75 -2.99,-1.13 -5.38,-1.13l-4.77 0 0 10.1zm0 16.48l5.5 0c2.69,0 4.76,-0.49 6.22,-1.46 1.46,-1.01 2.19,-2.54 2.19,-4.6 0,-1.94 -0.71,-3.34 -2.13,-4.2 -1.42,-0.9 -3.52,-1.35 -6.28,-1.35l-5.5 0 0 11.61z"/>
 </g>
</svg>
