<svg width="119" height="26" viewBox="0 0 119 26" fill="none" xmlns="http://www.w3.org/2000/svg">
<path d="M16.6698 19.5017C19.5873 19.1317 21.9441 16.7739 22.3163 13.853C22.4463 12.856 22.3456 11.8425 22.0219 10.8907C21.6983 9.93884 21.1604 9.0741 20.4498 8.36317C19.7392 7.65225 18.8748 7.11415 17.9233 6.79039C16.9718 6.46664 15.9587 6.36588 14.9622 6.4959C12.0424 6.86829 9.68562 9.22601 9.3157 12.1446C9.18574 13.1416 9.28645 14.1551 9.61008 15.1069C9.9337 16.0588 10.4716 16.9235 11.1822 17.6345C11.8929 18.3454 12.7573 18.8835 13.7087 19.2072C14.6602 19.531 15.6733 19.6317 16.6698 19.5017V19.5017ZM17.0677 0.770361C19.8765 1.06617 22.4987 2.31765 24.4958 4.31556C26.4929 6.31347 27.7439 8.9367 28.0396 11.7466C28.8096 19.5203 22.3326 26 14.5597 25.2296C11.7513 24.9333 9.12965 23.6816 7.13301 21.6837C5.13637 19.6858 3.88572 17.0629 3.59013 14.2533C2.82005 6.47961 9.29709 -2.68909e-05 17.0677 0.770361ZM34.6329 1.2568H52.6193C53.3033 1.2568 53.6895 2.03882 53.2777 2.58345L40.8331 19.0083H50.5836C52.361 19.0083 53.7593 20.6259 53.3917 22.4692C53.1218 23.8215 51.8539 24.7432 50.4766 24.7432H30.9431C30.266 24.7432 29.8822 23.9681 30.2893 23.4305L42.7432 6.99165H34.74C33.3627 6.99165 32.0947 6.06765 31.8248 4.71773C31.4549 2.87438 32.8555 1.2568 34.6329 1.2568V1.2568ZM112.69 1.32197C114.547 0.930955 116.18 2.33674 116.18 4.12422V23.9146C116.18 24.6058 115.382 24.9899 114.842 24.5616L99.3266 12.247V21.8804C99.3266 23.6679 97.6934 25.0737 95.8368 24.6826C94.506 24.4033 93.594 23.1628 93.594 21.8036V2.08305C93.594 1.39179 94.392 1.00776 94.9318 1.43601L110.45 13.7506V4.20103C110.45 2.8418 111.364 1.60359 112.692 1.32197H112.69ZM72.2901 0.70752C81.7892 0.70752 89.49 6.20962 89.49 12.9965C89.49 19.7833 81.7892 25.2854 72.2901 25.2854C62.7909 25.2854 55.0901 19.7833 55.0901 12.9965C55.0901 6.20962 62.7909 0.70752 72.2901 0.70752ZM72.2901 6.44237C65.7269 6.44237 60.8226 9.9033 60.8226 12.9965C60.8226 16.0897 65.7269 19.5506 72.2901 19.5506C78.8532 19.5506 83.7575 16.092 83.7575 12.9965C83.7575 9.90097 78.8532 6.44237 72.2901 6.44237V6.44237Z" fill="white"/>
</svg>
