<svg width="165" height="40" viewBox="0 0 165 40" fill="none" xmlns="http://www.w3.org/2000/svg">
<path d="M42.0595 30.0088V4.06055H57.3961V7.31376H45.2353V15.2919H56.1568V18.5451H45.2353V26.6781H58.2481V29.9314H42.0595V30.0088Z" fill="white"/>
<path d="M74.3593 30.0069L69.0921 23.1132L63.825 30.0069H60.1071L67.3106 20.7895L59.7198 11.2622H63.9025L69.0921 18.3883L74.3593 11.2622H78.4645L71.261 20.7895L78.0772 30.0069H74.3593Z" fill="white"/>
<path d="M83.1897 27.2198V40.0003H80.014V20.8683C80.014 15.9885 83.7319 10.7988 89.5412 10.7988C95.428 10.7988 99.8431 14.5168 99.8431 20.6359C99.8431 26.6002 95.3506 30.7054 90.2384 30.7054C87.7597 30.7054 84.4291 29.621 83.1897 27.2198V27.2198ZM96.5124 20.6359C96.5124 16.4532 93.8014 13.9746 88.9991 14.207C86.6753 14.2844 83.1123 15.9885 83.4221 21.9527C83.4996 23.8891 85.5135 27.5297 89.9285 27.5297C93.7239 27.5297 96.5124 25.3608 96.5124 20.6359V20.6359Z" fill="white"/>
<path d="M102.554 30.0075V11.2628H105.73V13.2767C107.279 11.4951 109.68 10.8755 112.236 10.8755V14.2836C111.849 14.2062 108.054 13.7414 105.73 18.6987V30.0849H102.554V30.0075Z" fill="white"/>
<path d="M113.088 20.6359C113.088 15.2139 116.961 10.7988 122.306 10.7988C128.967 10.7988 131.446 15.2139 131.446 20.8683V22.4175H116.574C116.806 25.9805 119.982 27.8395 122.925 27.762C125.094 27.6846 126.566 27.0649 128.115 25.5158L130.206 27.6846C128.27 29.5435 125.791 30.7829 122.771 30.7829C117.116 30.7054 113.088 26.5227 113.088 20.6359V20.6359ZM122.073 13.9746C119.053 13.9746 116.729 16.6081 116.574 19.4741H128.115C128.115 16.6856 126.101 13.9746 122.073 13.9746V13.9746Z" fill="white"/>
<path d="M133.072 27.3766L135.396 25.2852C135.318 25.2852 136.558 26.5245 136.713 26.602C137.255 27.0667 137.797 27.3766 138.494 27.5315C140.508 28.0737 144.148 27.9188 144.458 25.1303C144.613 23.5811 143.451 22.7291 142.135 22.1869C140.43 21.5672 138.572 21.3349 136.867 20.5603C134.931 19.7083 133.692 18.2366 133.692 16.0678C133.692 10.4134 141.747 9.48387 145.388 12.1174C145.543 12.2723 147.324 13.899 147.247 13.899L144.923 15.7579C143.761 14.3637 142.677 13.6666 140.198 13.6666C138.959 13.6666 137.255 14.2088 136.945 15.5256C136.48 17.3845 138.572 18.0817 139.966 18.4689C141.825 18.9337 143.839 19.2435 145.465 20.2505C147.711 21.6447 148.254 24.6655 147.402 26.9893C146.472 29.5454 143.684 30.5523 141.205 30.6298C138.262 30.7847 135.706 29.8552 133.614 27.7638C133.459 27.7638 133.072 27.3766 133.072 27.3766V27.3766Z" fill="white"/>
<path d="M149.416 27.3766L151.74 25.2852C151.662 25.2852 152.902 26.5245 153.057 26.602C153.599 27.0667 154.141 27.3766 154.838 27.5315C156.852 28.0737 160.492 27.9188 160.802 25.1303C160.957 23.5811 159.795 22.7291 158.479 22.1869C156.774 21.5672 154.915 21.3349 153.211 20.5603C151.275 19.7083 150.036 18.2366 150.036 16.0678C150.036 10.4134 158.091 9.48387 161.732 12.1174C161.887 12.2723 163.668 13.899 163.591 13.899L161.267 15.7579C160.105 14.3637 159.021 13.6666 156.542 13.6666C155.303 13.6666 153.599 14.2088 153.289 15.5256C152.824 17.3845 154.915 18.0817 156.31 18.4689C158.169 18.9337 160.183 19.2435 161.809 20.2505C164.055 21.6447 164.598 24.6655 163.746 26.9893C162.816 29.5454 160.028 30.5523 157.549 30.6298C154.606 30.7847 152.05 29.8552 149.958 27.7638C149.803 27.7638 149.416 27.3766 149.416 27.3766V27.3766Z" fill="white"/>
<path d="M20.5262 30.0078L18.2025 23.8112H5.6544L3.33068 30.0078H0L10.0695 4.05957H13.71L23.702 30.0078H20.5262ZM11.7735 7.77753L7.04864 20.6355H16.8857L11.7735 7.77753Z" fill="white"/>
<path d="M25.793 30.0078V4.05957H29.0462V30.0078H25.793Z" fill="white"/>
<path d="M33.9265 30.0078V11.6504H37.1797V30.0078H33.9265Z" fill="white"/>
<path d="M40.2778 5.68597V5.37614C37.7992 5.29868 35.7853 3.28479 35.7078 0.806152H35.2431C35.1656 3.28479 33.1517 5.29868 30.6731 5.37614V5.68597C33.1517 5.76342 35.1656 7.77733 35.2431 10.256H35.7078C35.7853 7.77733 37.7992 5.76342 40.2778 5.68597Z" fill="white"/>
</svg>
