<?xml version="1.0" encoding="UTF-8"?>
<!DOCTYPE svg PUBLIC "-//W3C//DTD SVG 1.1//EN" "http://www.w3.org/Graphics/SVG/1.1/DTD/svg11.dtd">
<!-- Creator: CorelDRAW -->
<svg xmlns="http://www.w3.org/2000/svg" xml:space="preserve" width="1996px" height="1132px" version="1.1" style="shape-rendering:geometricPrecision; text-rendering:geometricPrecision; image-rendering:optimizeQuality; fill-rule:evenodd; clip-rule:evenodd"
viewBox="0 0 1995.7 1131.65"
 xmlns:xlink="http://www.w3.org/1999/xlink"
 xmlns:xodm="http://www.corel.com/coreldraw/odm/2003">
 <defs>
  <style type="text/css">
   <![CDATA[
    .str0 {stroke:#2EC98C;stroke-width:3.12;stroke-miterlimit:22.9256}
    .str3 {stroke:#3498DB;stroke-width:3.12;stroke-miterlimit:22.9256}
    .str2 {stroke:#9B59B6;stroke-width:3.12;stroke-miterlimit:22.9256}
    .str1 {stroke:#FFC736;stroke-width:3.12;stroke-miterlimit:22.9256}
    .fil7 {fill:none;fill-rule:nonzero}
    .fil3 {fill:#2ECC71;fill-rule:nonzero}
    .fil2 {fill:#3498DB;fill-rule:nonzero}
    .fil1 {fill:#9B59B6;fill-rule:nonzero}
    .fil4 {fill:#F1C40F;fill-rule:nonzero}
    .fil5 {fill:#F2F7FB;fill-rule:nonzero}
    .fil6 {fill:white;fill-rule:nonzero}
    .fil0 {fill:#4E5D7C;fill-rule:nonzero;fill-opacity:0.501961}
   ]]>
  </style>
 </defs>
 <g id="Слой_x0020_1">
  <metadata id="CorelCorpID_0Corel-Layer"/>
  <g id="_2130714875312">
   <path class="fil0" d="M1452.67 1012.58l5.4 0 9.41 22.96 0.34 0 9.41 -22.96 5.4 0 0 29.54 -4.24 0 0 -21.38 -0.27 0 -8.71 21.34 -3.52 0 -8.71 -21.35 -0.28 0 0 21.39 -4.23 0 0 -29.54zm42.54 30.03c-1.4,0 -2.67,-0.26 -3.8,-0.78 -1.14,-0.53 -2.04,-1.29 -2.7,-2.29 -0.66,-1 -0.98,-2.23 -0.98,-3.68 0,-1.25 0.24,-2.28 0.72,-3.08 0.48,-0.81 1.13,-1.45 1.95,-1.92 0.81,-0.47 1.73,-0.83 2.74,-1.07 1.01,-0.24 2.03,-0.43 3.08,-0.55 1.33,-0.15 2.41,-0.28 3.23,-0.38 0.83,-0.1 1.43,-0.27 1.81,-0.5 0.37,-0.23 0.56,-0.6 0.56,-1.12l0 -0.11c0,-1.26 -0.36,-2.23 -1.07,-2.92 -0.7,-0.69 -1.75,-1.04 -3.14,-1.04 -1.45,0 -2.6,0.32 -3.44,0.96 -0.82,0.64 -1.4,1.35 -1.71,2.13l-4.06 -0.93c0.49,-1.34 1.19,-2.43 2.11,-3.26 0.93,-0.83 2.01,-1.44 3.22,-1.82 1.21,-0.38 2.48,-0.57 3.82,-0.57 0.88,0 1.82,0.11 2.81,0.31 1,0.21 1.93,0.58 2.8,1.13 0.87,0.55 1.59,1.33 2.15,2.35 0.56,1.01 0.84,2.32 0.84,3.94l0 14.71 -4.22 0 0 -3.03 -0.17 0c-0.28,0.56 -0.7,1.1 -1.25,1.65 -0.56,0.53 -1.28,0.98 -2.15,1.34 -0.88,0.35 -1.93,0.53 -3.15,0.53zm0.94 -3.46c1.19,0 2.21,-0.24 3.06,-0.71 0.85,-0.47 1.5,-1.09 1.94,-1.84 0.46,-0.77 0.68,-1.59 0.68,-2.47l0 -2.86c-0.15,0.16 -0.45,0.3 -0.89,0.44 -0.43,0.12 -0.93,0.23 -1.49,0.33 -0.56,0.09 -1.1,0.17 -1.63,0.24 -0.53,0.07 -0.97,0.13 -1.32,0.18 -0.84,0.1 -1.6,0.28 -2.3,0.53 -0.68,0.25 -1.23,0.61 -1.64,1.08 -0.4,0.46 -0.61,1.08 -0.61,1.85 0,1.07 0.4,1.87 1.19,2.42 0.78,0.54 1.79,0.81 3.01,0.81zm15.74 11.28l0 -30.46 4.21 0 0 3.59 0.36 0c0.25,-0.46 0.61,-1 1.08,-1.6 0.47,-0.61 1.13,-1.14 1.96,-1.59 0.84,-0.46 1.94,-0.69 3.32,-0.69 1.79,0 3.38,0.45 4.79,1.36 1.4,0.9 2.5,2.2 3.3,3.9 0.81,1.71 1.21,3.75 1.21,6.15 0,2.39 -0.4,4.44 -1.19,6.16 -0.8,1.7 -1.9,3.01 -3.29,3.93 -1.4,0.91 -2.99,1.37 -4.78,1.37 -1.34,0 -2.44,-0.22 -3.3,-0.67 -0.85,-0.46 -1.51,-0.99 -1.99,-1.59 -0.48,-0.61 -0.85,-1.15 -1.11,-1.62l-0.26 0 0 11.76 -4.31 0zm4.22 -19.38c0,1.55 0.23,2.92 0.68,4.09 0.46,1.17 1.11,2.09 1.96,2.75 0.86,0.66 1.91,0.98 3.15,0.98 1.29,0 2.36,-0.34 3.23,-1.02 0.86,-0.69 1.52,-1.63 1.96,-2.81 0.45,-1.18 0.68,-2.51 0.68,-3.99 0,-1.47 -0.23,-2.78 -0.67,-3.95 -0.43,-1.16 -1.08,-2.08 -1.96,-2.75 -0.86,-0.67 -1.94,-1.01 -3.24,-1.01 -1.25,0 -2.31,0.32 -3.18,0.97 -0.85,0.64 -1.5,1.54 -1.94,2.7 -0.44,1.15 -0.67,2.49 -0.67,4.04zm20.84 11.07l0 -22.15 4.31 0 0 9.29 2.08 0 7.31 -9.29 5.34 0 -8.58 10.77 8.68 11.38 -5.35 0 -6.68 -8.86 -2.8 0 0 8.86 -4.31 0zm31.13 0.45c-2.19,0 -4.07,-0.47 -5.64,-1.4 -1.57,-0.94 -2.78,-2.26 -3.64,-3.97 -0.84,-1.71 -1.27,-3.72 -1.27,-6.01 0,-2.27 0.43,-4.27 1.27,-6 0.86,-1.73 2.05,-3.08 3.58,-4.05 1.54,-0.98 3.34,-1.46 5.39,-1.46 1.25,0 2.46,0.21 3.64,0.62 1.17,0.41 2.22,1.06 3.15,1.94 0.94,0.89 1.67,2.04 2.21,3.45 0.54,1.41 0.81,3.11 0.81,5.12l0 1.53 -17.61 0 0 -3.23 13.38 0c0,-1.13 -0.23,-2.14 -0.69,-3.01 -0.46,-0.89 -1.11,-1.58 -1.94,-2.09 -0.83,-0.51 -1.8,-0.77 -2.92,-0.77 -1.21,0 -2.27,0.3 -3.17,0.89 -0.89,0.59 -1.59,1.36 -2.08,2.31 -0.48,0.94 -0.72,1.97 -0.72,3.07l0 2.53c0,1.48 0.26,2.74 0.78,3.78 0.53,1.04 1.26,1.83 2.21,2.38 0.94,0.54 2.04,0.8 3.3,0.8 0.82,0 1.56,-0.11 2.23,-0.34 0.68,-0.24 1.26,-0.6 1.75,-1.07 0.49,-0.47 0.87,-1.05 1.12,-1.74l4.09 0.73c-0.33,1.2 -0.92,2.26 -1.76,3.16 -0.84,0.89 -1.89,1.59 -3.16,2.09 -1.26,0.49 -2.7,0.74 -4.31,0.74zm12.33 -18.88l0 -3.72 18.69 0 0 3.72 -7.23 0 0 18.43 -4.21 0 0 -18.43 -7.25 0zm23.25 18.43l0 -22.15 18.07 0 0 22.15 -4.22 0 0 -18.43 -9.65 0 0 18.43 -4.2 0zm22.09 0l-0.01 -3.74 0.79 0c0.62,0 1.13,-0.13 1.55,-0.38 0.42,-0.27 0.76,-0.73 1.03,-1.36 0.27,-0.63 0.48,-1.51 0.62,-2.62 0.15,-1.13 0.25,-2.54 0.32,-4.25l0.39 -9.8 15.46 0 0 22.15 -4.23 0 0 -18.43 -7.23 0 -0.35 7.53c-0.09,1.82 -0.28,3.42 -0.56,4.79 -0.28,1.36 -0.69,2.5 -1.23,3.41 -0.54,0.91 -1.23,1.58 -2.08,2.04 -0.84,0.44 -1.87,0.66 -3.08,0.66l-1.39 0zm35.45 0.45c-2.18,0 -4.07,-0.47 -5.64,-1.4 -1.57,-0.94 -2.78,-2.26 -3.64,-3.97 -0.84,-1.71 -1.26,-3.72 -1.26,-6.01 0,-2.27 0.42,-4.27 1.26,-6 0.86,-1.73 2.05,-3.08 3.58,-4.05 1.54,-0.98 3.34,-1.46 5.4,-1.46 1.25,0 2.46,0.21 3.63,0.62 1.17,0.41 2.23,1.06 3.16,1.94 0.93,0.89 1.67,2.04 2.2,3.45 0.54,1.41 0.81,3.11 0.81,5.12l0 1.53 -17.61 0 0 -3.23 13.39 0c0,-1.13 -0.23,-2.14 -0.69,-3.01 -0.47,-0.89 -1.12,-1.58 -1.95,-2.09 -0.83,-0.51 -1.8,-0.77 -2.92,-0.77 -1.21,0 -2.26,0.3 -3.17,0.89 -0.89,0.59 -1.58,1.36 -2.07,2.31 -0.49,0.94 -0.73,1.97 -0.73,3.07l0 2.53c0,1.48 0.26,2.74 0.78,3.78 0.53,1.04 1.27,1.83 2.21,2.38 0.94,0.54 2.04,0.8 3.3,0.8 0.82,0 1.57,-0.11 2.24,-0.34 0.67,-0.24 1.25,-0.6 1.74,-1.07 0.49,-0.47 0.87,-1.05 1.13,-1.74l4.08 0.73c-0.33,1.2 -0.91,2.26 -1.76,3.16 -0.84,0.89 -1.89,1.59 -3.16,2.09 -1.26,0.49 -2.7,0.74 -4.31,0.74zm18.51 -6.49l9.76 -16.11 4.65 0 0 22.15 -4.23 0 0 -16.12 -9.72 16.12 -4.68 0 0 -22.15 4.22 0 0 16.11zm7.92 -23.61l3.55 0c0,1.62 -0.58,2.95 -1.73,3.96 -1.15,1.01 -2.7,1.52 -4.65,1.52 -1.94,0 -3.48,-0.51 -4.63,-1.52 -1.14,-1.01 -1.71,-2.34 -1.71,-3.96l3.53 0c0,0.72 0.21,1.36 0.64,1.92 0.42,0.54 1.14,0.82 2.17,0.82 1.01,0 1.73,-0.28 2.17,-0.82 0.44,-0.55 0.66,-1.19 0.66,-1.92zm21.62 30.1c-2.15,0 -3.99,-0.49 -5.54,-1.46 -1.54,-0.98 -2.72,-2.33 -3.55,-4.05 -0.82,-1.72 -1.24,-3.69 -1.24,-5.92 0,-2.25 0.43,-4.23 1.27,-5.95 0.85,-1.73 2.04,-3.08 3.58,-4.05 1.54,-0.98 3.35,-1.46 5.44,-1.46 1.68,0 3.18,0.31 4.49,0.94 1.32,0.61 2.38,1.48 3.19,2.59 0.82,1.12 1.3,2.42 1.46,3.91l-4.2 0c-0.23,-1.04 -0.76,-1.93 -1.59,-2.68 -0.81,-0.75 -1.91,-1.13 -3.28,-1.13 -1.21,0 -2.26,0.32 -3.16,0.96 -0.89,0.62 -1.59,1.51 -2.09,2.68 -0.5,1.15 -0.75,2.52 -0.75,4.1 0,1.61 0.24,3 0.73,4.17 0.49,1.18 1.18,2.09 2.08,2.73 0.9,0.65 1.97,0.97 3.19,0.97 0.81,0 1.55,-0.15 2.22,-0.45 0.67,-0.31 1.23,-0.74 1.69,-1.31 0.46,-0.57 0.78,-1.25 0.96,-2.05l4.2 0c-0.16,1.43 -0.62,2.71 -1.4,3.84 -0.78,1.12 -1.82,2.01 -3.13,2.65 -1.3,0.64 -2.82,0.97 -4.57,0.97zm33.83 -3.62l-3.85 0 -5.83 -8.66 0 -0.29 4.14 0 5.54 8.95zm0 -17.71l-5.54 8.94 -4.14 0 0 -0.29 5.83 -8.65 3.85 0zm8.09 17.71l-3.85 0 -5.82 -8.66 0 -0.29 4.13 0 5.54 8.95zm0 -17.71l-5.54 8.94 -4.13 0 0 -0.29 5.82 -8.65 3.85 0zm11.75 20.88l-8.19 -29.54 4.69 0 5.75 22.88 0.27 0 5.99 -22.88 4.64 0 5.99 22.89 0.27 0 5.74 -22.89 4.7 0 -8.2 29.54 -4.49 0 -6.21 -22.13 -0.23 0 -6.22 22.13 -4.5 0zm33.57 0l0 -22.15 4.31 0 0 22.15 -4.31 0zm2.18 -25.57c-0.75,0 -1.39,-0.25 -1.94,-0.75 -0.52,-0.51 -0.79,-1.12 -0.79,-1.82 0,-0.71 0.27,-1.31 0.79,-1.81 0.55,-0.52 1.19,-0.77 1.94,-0.77 0.75,0 1.39,0.25 1.92,0.77 0.53,0.5 0.8,1.1 0.8,1.81 0,0.7 -0.27,1.31 -0.8,1.82 -0.53,0.5 -1.17,0.75 -1.92,0.75zm12.24 -3.97l0 29.54 -4.31 0 0 -29.54 4.31 0zm14.1 29.97c-1.79,0 -3.38,-0.46 -4.79,-1.37 -1.39,-0.92 -2.49,-2.23 -3.29,-3.93 -0.79,-1.72 -1.18,-3.77 -1.18,-6.16 0,-2.4 0.4,-4.44 1.2,-6.15 0.81,-1.7 1.91,-3 3.31,-3.9 1.41,-0.91 3,-1.36 4.78,-1.36 1.37,0 2.48,0.23 3.32,0.69 0.84,0.45 1.49,0.98 1.96,1.59 0.47,0.6 0.83,1.14 1.09,1.6l0.26 0 0 -10.98 4.31 0 0 29.54 -4.21 0 0 -3.45 -0.36 0c-0.26,0.47 -0.63,1.01 -1.12,1.62 -0.48,0.6 -1.15,1.13 -1.99,1.59 -0.85,0.45 -1.94,0.67 -3.29,0.67zm0.95 -3.68c1.24,0 2.29,-0.32 3.15,-0.98 0.86,-0.66 1.51,-1.58 1.96,-2.75 0.45,-1.17 0.68,-2.54 0.68,-4.09 0,-1.55 -0.23,-2.89 -0.67,-4.04 -0.44,-1.16 -1.09,-2.06 -1.95,-2.7 -0.85,-0.65 -1.91,-0.97 -3.17,-0.97 -1.3,0 -2.38,0.34 -3.24,1.01 -0.87,0.67 -1.52,1.59 -1.96,2.75 -0.44,1.17 -0.65,2.48 -0.65,3.95 0,1.48 0.22,2.81 0.66,3.99 0.44,1.18 1.1,2.12 1.96,2.81 0.88,0.68 1.95,1.02 3.23,1.02zm16.53 3.25l0 -29.54 4.31 0 0 10.98 0.26 0c0.25,-0.46 0.61,-1 1.08,-1.6 0.47,-0.61 1.12,-1.14 1.96,-1.59 0.84,-0.46 1.94,-0.69 3.32,-0.69 1.79,0 3.38,0.45 4.79,1.36 1.4,0.9 2.5,2.2 3.3,3.9 0.81,1.71 1.21,3.75 1.21,6.15 0,2.39 -0.4,4.44 -1.2,6.16 -0.8,1.7 -1.89,3.01 -3.29,3.93 -1.39,0.91 -2.98,1.37 -4.77,1.37 -1.35,0 -2.45,-0.22 -3.3,-0.67 -0.85,-0.46 -1.51,-0.99 -1.99,-1.59 -0.48,-0.61 -0.85,-1.15 -1.11,-1.62l-0.36 0 0 3.45 -4.21 0zm4.22 -11.07c0,1.55 0.23,2.92 0.68,4.09 0.45,1.17 1.1,2.09 1.96,2.75 0.85,0.66 1.9,0.98 3.15,0.98 1.28,0 2.36,-0.34 3.22,-1.02 0.87,-0.69 1.52,-1.63 1.97,-2.81 0.45,-1.18 0.67,-2.51 0.67,-3.99 0,-1.47 -0.22,-2.78 -0.66,-3.95 -0.43,-1.16 -1.08,-2.08 -1.96,-2.75 -0.87,-0.67 -1.95,-1.01 -3.24,-1.01 -1.25,0 -2.31,0.32 -3.18,0.97 -0.86,0.64 -1.5,1.54 -1.95,2.7 -0.44,1.15 -0.66,2.49 -0.66,4.04zm30.4 11.52c-2.18,0 -4.06,-0.47 -5.64,-1.4 -1.57,-0.94 -2.78,-2.26 -3.63,-3.97 -0.85,-1.71 -1.27,-3.72 -1.27,-6.01 0,-2.27 0.42,-4.27 1.27,-6 0.85,-1.73 2.04,-3.08 3.57,-4.05 1.54,-0.98 3.34,-1.46 5.4,-1.46 1.25,0 2.46,0.21 3.63,0.62 1.17,0.41 2.23,1.06 3.16,1.94 0.93,0.89 1.67,2.04 2.21,3.45 0.53,1.41 0.8,3.11 0.8,5.12l0 1.53 -17.61 0 0 -3.23 13.39 0c0,-1.13 -0.23,-2.14 -0.7,-3.01 -0.46,-0.89 -1.1,-1.58 -1.94,-2.09 -0.83,-0.51 -1.8,-0.77 -2.92,-0.77 -1.21,0 -2.26,0.3 -3.17,0.89 -0.89,0.59 -1.58,1.36 -2.07,2.31 -0.49,0.94 -0.73,1.97 -0.73,3.07l0 2.53c0,1.48 0.26,2.74 0.78,3.78 0.53,1.04 1.27,1.83 2.21,2.38 0.94,0.54 2.04,0.8 3.3,0.8 0.82,0 1.56,-0.11 2.24,-0.34 0.67,-0.24 1.25,-0.6 1.74,-1.07 0.49,-0.47 0.87,-1.05 1.13,-1.74l4.08 0.73c-0.33,1.2 -0.92,2.26 -1.76,3.16 -0.84,0.89 -1.89,1.59 -3.16,2.09 -1.26,0.49 -2.7,0.74 -4.31,0.74zm14.29 -0.45l0 -22.15 4.17 0 0 3.52 0.23 0c0.4,-1.2 1.11,-2.13 2.13,-2.82 1.03,-0.69 2.19,-1.03 3.49,-1.03 0.27,0 0.59,0.01 0.95,0.02 0.38,0.02 0.67,0.05 0.88,0.08l0 4.12c-0.17,-0.05 -0.48,-0.1 -0.92,-0.16 -0.44,-0.07 -0.89,-0.1 -1.33,-0.1 -1.02,0 -1.93,0.22 -2.72,0.65 -0.79,0.43 -1.42,1.02 -1.88,1.77 -0.46,0.75 -0.69,1.61 -0.69,2.57l0 13.53 -4.31 0zm15.58 0l0 -22.15 4.17 0 0 3.52 0.23 0c0.41,-1.2 1.12,-2.13 2.14,-2.82 1.03,-0.69 2.19,-1.03 3.49,-1.03 0.27,0 0.58,0.01 0.95,0.02 0.37,0.02 0.67,0.05 0.88,0.08l0 4.12c-0.18,-0.05 -0.48,-0.1 -0.93,-0.16 -0.44,-0.07 -0.88,-0.1 -1.32,-0.1 -1.02,0 -1.93,0.22 -2.73,0.65 -0.78,0.43 -1.41,1.02 -1.87,1.77 -0.46,0.75 -0.7,1.61 -0.7,2.57l0 13.53 -4.31 0zm15.59 0l0 -22.15 4.31 0 0 22.15 -4.31 0zm2.18 -25.57c-0.75,0 -1.4,-0.25 -1.93,-0.75 -0.54,-0.51 -0.8,-1.12 -0.8,-1.82 0,-0.71 0.26,-1.31 0.8,-1.81 0.53,-0.52 1.18,-0.77 1.93,-0.77 0.75,0 1.39,0.25 1.92,0.77 0.54,0.5 0.8,1.1 0.8,1.81 0,0.7 -0.26,1.31 -0.8,1.82 -0.53,0.5 -1.17,0.75 -1.92,0.75zm17.48 26.02c-2.18,0 -4.06,-0.47 -5.64,-1.4 -1.57,-0.94 -2.78,-2.26 -3.63,-3.97 -0.85,-1.71 -1.27,-3.72 -1.27,-6.01 0,-2.27 0.42,-4.27 1.27,-6 0.85,-1.73 2.05,-3.08 3.57,-4.05 1.54,-0.98 3.34,-1.46 5.4,-1.46 1.25,0 2.46,0.21 3.63,0.62 1.18,0.41 2.23,1.06 3.16,1.94 0.94,0.89 1.67,2.04 2.21,3.45 0.54,1.41 0.81,3.11 0.81,5.12l0 1.53 -17.61 0 0 -3.23 13.38 0c0,-1.13 -0.23,-2.14 -0.69,-3.01 -0.46,-0.89 -1.11,-1.58 -1.95,-2.09 -0.83,-0.51 -1.8,-0.77 -2.91,-0.77 -1.21,0 -2.27,0.3 -3.18,0.89 -0.89,0.59 -1.58,1.36 -2.07,2.31 -0.48,0.94 -0.72,1.97 -0.72,3.07l0 2.53c0,1.48 0.26,2.74 0.78,3.78 0.52,1.04 1.26,1.83 2.2,2.38 0.94,0.54 2.04,0.8 3.3,0.8 0.82,0 1.57,-0.11 2.24,-0.34 0.67,-0.24 1.26,-0.6 1.75,-1.07 0.49,-0.47 0.86,-1.05 1.12,-1.74l4.08 0.73c-0.32,1.2 -0.91,2.26 -1.76,3.16 -0.84,0.89 -1.89,1.59 -3.16,2.09 -1.26,0.49 -2.69,0.74 -4.31,0.74zm30.89 -17.19l-3.91 0.69c-0.16,-0.5 -0.42,-0.98 -0.78,-1.43 -0.34,-0.45 -0.81,-0.82 -1.41,-1.11 -0.6,-0.29 -1.34,-0.43 -2.24,-0.43 -1.22,0 -2.24,0.27 -3.05,0.82 -0.82,0.54 -1.23,1.23 -1.23,2.09 0,0.74 0.27,1.34 0.82,1.79 0.55,0.45 1.43,0.82 2.66,1.11l3.52 0.81c2.03,0.47 3.55,1.19 4.55,2.17 1,0.99 1.5,2.26 1.5,3.82 0,1.33 -0.38,2.52 -1.15,3.55 -0.76,1.03 -1.82,1.84 -3.19,2.43 -1.36,0.58 -2.93,0.88 -4.72,0.88 -2.48,0 -4.5,-0.53 -6.07,-1.59 -1.56,-1.07 -2.53,-2.58 -2.88,-4.54l4.17 -0.64c0.26,1.09 0.79,1.91 1.6,2.47 0.81,0.55 1.86,0.82 3.16,0.82 1.41,0 2.54,-0.29 3.38,-0.88 0.85,-0.6 1.27,-1.32 1.27,-2.18 0,-0.69 -0.26,-1.27 -0.77,-1.74 -0.51,-0.47 -1.3,-0.83 -2.36,-1.07l-3.75 -0.82c-2.06,-0.47 -3.59,-1.22 -4.58,-2.25 -0.98,-1.03 -1.47,-2.33 -1.47,-3.91 0,-1.31 0.36,-2.45 1.09,-3.43 0.73,-0.98 1.74,-1.75 3.03,-2.29 1.29,-0.56 2.77,-0.84 4.43,-0.84 2.39,0 4.28,0.52 5.65,1.56 1.38,1.03 2.29,2.4 2.73,4.14zm4.77 13.57l5.54 -8.95 4.14 0 0 0.29 -5.83 8.66 -3.85 0zm0 -17.71l3.85 0 5.83 8.65 0 0.29 -4.14 0 -5.54 -8.94zm8.13 17.71l5.54 -8.95 4.14 0 0 0.29 -5.83 8.66 -3.85 0zm0 -17.71l3.85 0 5.83 8.65 0 0.29 -4.14 0 -5.54 -8.94z"/>
   <path class="fil0" d="M31.9 15.17c0,3.16 -0.57,5.87 -1.73,8.14 -1.15,2.26 -2.73,4 -4.74,5.22 -2,1.21 -4.27,1.81 -6.82,1.81 -2.56,0 -4.84,-0.6 -6.85,-1.81 -2,-1.22 -3.58,-2.97 -4.73,-5.24 -1.16,-2.27 -1.73,-4.97 -1.73,-8.12 0,-3.15 0.57,-5.86 1.73,-8.12 1.15,-2.27 2.73,-4.01 4.73,-5.22 2.01,-1.22 4.29,-1.83 6.85,-1.83 2.55,0 4.82,0.61 6.82,1.83 2.01,1.21 3.59,2.95 4.74,5.22 1.16,2.26 1.73,4.97 1.73,8.12zm-4.41 0c0,-2.4 -0.39,-4.43 -1.17,-6.07 -0.77,-1.65 -1.82,-2.9 -3.17,-3.75 -1.34,-0.85 -2.85,-1.28 -4.54,-1.28 -1.7,0 -3.22,0.43 -4.56,1.28 -1.34,0.85 -2.39,2.1 -3.17,3.75 -0.77,1.64 -1.16,3.67 -1.16,6.07 0,2.41 0.39,4.43 1.16,6.09 0.78,1.64 1.83,2.89 3.17,3.75 1.34,0.84 2.86,1.27 4.56,1.27 1.69,0 3.2,-0.43 4.54,-1.27 1.35,-0.86 2.4,-2.11 3.17,-3.75 0.78,-1.66 1.17,-3.68 1.17,-6.09zm9.62 14.77l0 -22.15 18.07 0 0 22.15 -4.22 0 0 -18.43 -9.65 0 0 18.43 -4.2 0zm21.09 -18.43l0 -3.72 18.69 0 0 3.72 -7.22 0 0 18.43 -4.21 0 0 -18.43 -7.26 0zm31.55 18.88c-2.07,0 -3.89,-0.48 -5.43,-1.43 -1.55,-0.95 -2.75,-2.28 -3.61,-4 -0.85,-1.71 -1.28,-3.71 -1.28,-6 0,-2.29 0.43,-4.3 1.28,-6.02 0.86,-1.72 2.06,-3.06 3.61,-4.01 1.54,-0.95 3.36,-1.43 5.43,-1.43 2.08,0 3.89,0.48 5.44,1.43 1.55,0.95 2.75,2.29 3.61,4.01 0.85,1.72 1.28,3.73 1.28,6.02 0,2.29 -0.43,4.29 -1.28,6 -0.86,1.72 -2.06,3.05 -3.61,4 -1.55,0.95 -3.36,1.43 -5.44,1.43zm0.02 -3.62c1.34,0 2.46,-0.36 3.34,-1.07 0.89,-0.71 1.54,-1.66 1.97,-2.84 0.43,-1.18 0.65,-2.49 0.65,-3.91 0,-1.41 -0.22,-2.71 -0.65,-3.89 -0.43,-1.2 -1.08,-2.15 -1.97,-2.87 -0.88,-0.72 -2,-1.09 -3.34,-1.09 -1.36,0 -2.48,0.37 -3.38,1.09 -0.88,0.72 -1.54,1.67 -1.97,2.87 -0.43,1.18 -0.64,2.48 -0.64,3.89 0,1.42 0.21,2.73 0.64,3.91 0.43,1.18 1.09,2.13 1.97,2.84 0.9,0.71 2.02,1.07 3.38,1.07zm15.12 3.17l0 -22.15 9.19 0c2.5,0 4.48,0.53 5.94,1.6 1.46,1.06 2.19,2.49 2.19,4.31 0,1.3 -0.41,2.33 -1.24,3.09 -0.82,0.76 -1.92,1.27 -3.28,1.53 0.99,0.11 1.9,0.41 2.72,0.89 0.83,0.47 1.49,1.11 1.99,1.9 0.51,0.8 0.77,1.75 0.77,2.86 0,1.17 -0.31,2.21 -0.91,3.11 -0.61,0.9 -1.49,1.6 -2.64,2.11 -1.15,0.5 -2.52,0.75 -4.14,0.75l-10.59 0zm4.06 -3.61l6.53 0c1.07,0 1.9,-0.25 2.51,-0.76 0.6,-0.51 0.91,-1.2 0.91,-2.08 0,-1.03 -0.31,-1.83 -0.91,-2.42 -0.61,-0.59 -1.44,-0.89 -2.51,-0.89l-6.53 0 0 6.15zm0 -9.31l5.17 0c0.81,0 1.5,-0.12 2.08,-0.35 0.59,-0.23 1.03,-0.56 1.34,-0.98 0.32,-0.43 0.48,-0.94 0.48,-1.53 0,-0.85 -0.35,-1.52 -1.06,-2 -0.7,-0.48 -1.66,-0.72 -2.88,-0.72l-5.13 0 0 5.58zm22.19 -1.62l6.43 0c2.71,0 4.8,0.68 6.26,2.02 1.46,1.35 2.2,3.08 2.2,5.21 0,1.38 -0.33,2.63 -0.99,3.73 -0.65,1.11 -1.61,1.98 -2.87,2.63 -1.25,0.63 -2.79,0.95 -4.6,0.95l-9.67 0 0 -22.15 4.22 0 0 18.43 5.45 0c1.24,0 2.26,-0.32 3.06,-0.97 0.8,-0.65 1.2,-1.48 1.2,-2.49 0,-1.07 -0.4,-1.94 -1.2,-2.61 -0.8,-0.68 -1.82,-1.03 -3.06,-1.03l-6.43 0 0 -3.72zm18.03 14.54l0 -22.15 4.31 0 0 22.15 -4.31 0zm19.64 0.45c-2.18,0 -4.06,-0.47 -5.63,-1.4 -1.57,-0.94 -2.78,-2.27 -3.64,-3.97 -0.84,-1.71 -1.27,-3.71 -1.27,-6.01 0,-2.27 0.43,-4.27 1.27,-6 0.86,-1.73 2.05,-3.08 3.58,-4.05 1.54,-0.97 3.33,-1.46 5.39,-1.46 1.25,0 2.46,0.21 3.64,0.62 1.17,0.41 2.22,1.06 3.16,1.95 0.93,0.88 1.66,2.03 2.2,3.44 0.54,1.41 0.81,3.11 0.81,5.12l0 1.53 -17.61 0 0 -3.23 13.38 0c0,-1.13 -0.23,-2.14 -0.69,-3.01 -0.46,-0.89 -1.11,-1.58 -1.95,-2.09 -0.82,-0.51 -1.79,-0.77 -2.91,-0.77 -1.21,0 -2.27,0.3 -3.17,0.9 -0.9,0.58 -1.59,1.35 -2.08,2.3 -0.48,0.95 -0.72,1.97 -0.72,3.08l0 2.52c0,1.48 0.26,2.74 0.78,3.78 0.53,1.04 1.26,1.83 2.21,2.38 0.94,0.54 2.04,0.8 3.3,0.8 0.82,0 1.56,-0.11 2.23,-0.34 0.68,-0.24 1.26,-0.6 1.75,-1.07 0.49,-0.47 0.86,-1.05 1.12,-1.74l4.09 0.73c-0.33,1.2 -0.92,2.26 -1.76,3.16 -0.84,0.89 -1.89,1.59 -3.16,2.09 -1.26,0.49 -2.7,0.74 -4.32,0.74zm25.04 -0.45l0 -22.15 18.07 0 0 22.15 -4.22 0 0 -18.43 -9.65 0 0 18.43 -4.2 0zm23.84 8.31l0 -30.46 4.21 0 0 3.59 0.36 0c0.25,-0.46 0.61,-1 1.08,-1.6 0.47,-0.61 1.13,-1.14 1.96,-1.59 0.84,-0.46 1.94,-0.69 3.32,-0.69 1.79,0 3.38,0.45 4.79,1.36 1.4,0.9 2.5,2.2 3.3,3.9 0.81,1.71 1.21,3.75 1.21,6.15 0,2.39 -0.4,4.44 -1.2,6.16 -0.79,1.7 -1.89,3.01 -3.28,3.93 -1.4,0.92 -2.99,1.37 -4.78,1.37 -1.34,0 -2.44,-0.22 -3.3,-0.67 -0.85,-0.46 -1.51,-0.99 -1.99,-1.59 -0.48,-0.61 -0.85,-1.15 -1.11,-1.62l-0.26 0 0 11.76 -4.31 0zm4.22 -19.39c0,1.56 0.23,2.93 0.68,4.1 0.45,1.17 1.11,2.09 1.96,2.75 0.86,0.66 1.91,0.99 3.15,0.99 1.28,0 2.36,-0.35 3.23,-1.03 0.86,-0.69 1.52,-1.63 1.96,-2.81 0.45,-1.18 0.68,-2.51 0.68,-4 0,-1.46 -0.23,-2.77 -0.67,-3.93 -0.43,-1.17 -1.08,-2.08 -1.96,-2.76 -0.86,-0.67 -1.95,-1.01 -3.24,-1.01 -1.25,0 -2.31,0.32 -3.18,0.97 -0.85,0.64 -1.5,1.54 -1.94,2.7 -0.45,1.15 -0.67,2.5 -0.67,4.03zm30.17 11.53c-2.07,0 -3.88,-0.48 -5.43,-1.43 -1.55,-0.95 -2.75,-2.28 -3.61,-4 -0.85,-1.71 -1.28,-3.71 -1.28,-6 0,-2.29 0.43,-4.3 1.28,-6.02 0.86,-1.72 2.06,-3.06 3.61,-4.01 1.55,-0.95 3.36,-1.43 5.43,-1.43 2.08,0 3.89,0.48 5.44,1.43 1.55,0.95 2.75,2.29 3.61,4.01 0.85,1.72 1.28,3.73 1.28,6.02 0,2.29 -0.43,4.29 -1.28,6 -0.86,1.72 -2.06,3.05 -3.61,4 -1.55,0.95 -3.36,1.43 -5.44,1.43zm0.02 -3.62c1.34,0 2.46,-0.36 3.34,-1.07 0.89,-0.71 1.54,-1.66 1.97,-2.84 0.43,-1.18 0.64,-2.49 0.64,-3.91 0,-1.41 -0.21,-2.71 -0.64,-3.89 -0.43,-1.2 -1.08,-2.15 -1.97,-2.87 -0.88,-0.72 -2,-1.09 -3.34,-1.09 -1.36,0 -2.48,0.37 -3.38,1.09 -0.88,0.72 -1.54,1.67 -1.97,2.87 -0.43,1.18 -0.64,2.48 -0.64,3.89 0,1.42 0.21,2.73 0.64,3.91 0.43,1.18 1.09,2.13 1.97,2.84 0.9,0.71 2.02,1.07 3.38,1.07zm12.96 9.56l0 -10.12 1.8 0c0.46,-0.43 0.85,-0.93 1.17,-1.52 0.33,-0.59 0.6,-1.28 0.82,-2.09 0.23,-0.81 0.43,-1.75 0.58,-2.83 0.15,-1.08 0.29,-2.32 0.4,-3.72l0.7 -8.26 15.05 0 0 18.42 3.41 0 0 10.12 -4.21 0 0 -6.39 -15.45 0 0 6.39 -4.27 0zm6.42 -10.12l9.89 0 0 -14.73 -6.98 0 -0.46 4.57c-0.22,2.33 -0.5,4.35 -0.84,6.06 -0.33,1.7 -0.87,3.07 -1.61,4.1zm28.17 4.22c-1.41,0 -2.68,-0.26 -3.81,-0.78 -1.13,-0.53 -2.03,-1.29 -2.7,-2.29 -0.65,-1 -0.98,-2.23 -0.98,-3.68 0,-1.25 0.24,-2.28 0.72,-3.09 0.48,-0.8 1.13,-1.44 1.95,-1.91 0.82,-0.47 1.73,-0.83 2.74,-1.07 1.01,-0.24 2.04,-0.42 3.09,-0.55 1.32,-0.15 2.4,-0.28 3.23,-0.37 0.82,-0.11 1.43,-0.28 1.8,-0.51 0.37,-0.23 0.56,-0.6 0.56,-1.12l0 -0.1c0,-1.26 -0.35,-2.24 -1.06,-2.93 -0.71,-0.69 -1.75,-1.04 -3.15,-1.04 -1.45,0 -2.59,0.32 -3.43,0.97 -0.83,0.63 -1.4,1.34 -1.72,2.12l-4.05 -0.93c0.48,-1.34 1.18,-2.43 2.11,-3.26 0.93,-0.83 2,-1.44 3.21,-1.81 1.21,-0.39 2.49,-0.58 3.82,-0.58 0.89,0 1.82,0.11 2.82,0.32 1,0.2 1.93,0.57 2.79,1.12 0.88,0.55 1.59,1.33 2.15,2.35 0.56,1.01 0.84,2.32 0.84,3.94l0 14.71 -4.21 0 0 -3.03 -0.18 0c-0.27,0.56 -0.69,1.11 -1.25,1.65 -0.56,0.53 -1.27,0.98 -2.15,1.34 -0.87,0.35 -1.92,0.53 -3.14,0.53zm0.94 -3.46c1.19,0 2.21,-0.24 3.05,-0.71 0.86,-0.47 1.51,-1.08 1.95,-1.84 0.45,-0.77 0.68,-1.6 0.68,-2.47l0 -2.86c-0.16,0.16 -0.46,0.3 -0.9,0.44 -0.43,0.12 -0.93,0.23 -1.48,0.33 -0.56,0.09 -1.1,0.17 -1.63,0.24 -0.53,0.07 -0.97,0.13 -1.33,0.18 -0.84,0.1 -1.6,0.28 -2.29,0.53 -0.68,0.25 -1.23,0.61 -1.65,1.08 -0.4,0.46 -0.6,1.08 -0.6,1.85 0,1.07 0.39,1.87 1.18,2.42 0.79,0.54 1.79,0.81 3.02,0.81zm14.32 2.97l8.58 -11.34 -8.48 -10.81 5.02 0 6.85 9.2 1.54 0 0 -9.2 4.32 0 0 9.2 1.49 0 6.86 -9.2 5.01 0 -8.43 10.81 8.53 11.34 -5.11 0 -6.91 -9.23 -1.44 0 0 9.23 -4.32 0 0 -9.23 -1.44 0 -6.95 9.23 -5.12 0zm39.91 -6.04l9.76 -16.11 4.64 0 0 22.15 -4.22 0 0 -16.12 -9.72 16.12 -4.69 0 0 -22.15 4.23 0 0 16.11z"/>
   <path class="fil0" d="M0 1093.81l4.41 0 0 21.69 0.28 0 15.02 -21.69 4.13 0 0 29.53 -4.46 0 0 -21.66 -0.27 0 -15 21.66 -4.11 0 0 -29.53zm45.01 16.6l0 3.73 -12 0 0 -3.73 12 0zm-10.79 -9.22l0 22.15 -4.23 0 0 -22.15 4.23 0zm13.8 0l0 22.15 -4.21 0 0 -22.15 4.21 0zm3.02 3.72l0 -3.72 18.69 0 0 3.72 -7.22 0 0 18.43 -4.21 0 0 -18.43 -7.26 0zm31.77 18.88c-2.18,0 -4.06,-0.47 -5.64,-1.4 -1.57,-0.94 -2.78,-2.26 -3.63,-3.96 -0.85,-1.72 -1.27,-3.72 -1.27,-6.02 0,-2.27 0.42,-4.27 1.27,-6 0.85,-1.73 2.05,-3.08 3.57,-4.05 1.54,-0.97 3.34,-1.46 5.4,-1.46 1.25,0 2.46,0.21 3.63,0.62 1.17,0.42 2.23,1.06 3.16,1.95 0.93,0.89 1.67,2.03 2.21,3.45 0.53,1.4 0.8,3.11 0.8,5.12l0 1.52 -17.6 0 0 -3.22 13.38 0c0,-1.14 -0.23,-2.14 -0.69,-3.02 -0.47,-0.88 -1.11,-1.58 -1.95,-2.09 -0.83,-0.51 -1.8,-0.76 -2.91,-0.76 -1.21,0 -2.27,0.29 -3.18,0.89 -0.89,0.59 -1.58,1.35 -2.07,2.31 -0.48,0.94 -0.72,1.96 -0.72,3.07l0 2.52c0,1.48 0.26,2.74 0.77,3.78 0.53,1.04 1.27,1.83 2.21,2.38 0.94,0.54 2.04,0.81 3.3,0.81 0.82,0 1.57,-0.12 2.24,-0.35 0.67,-0.24 1.25,-0.59 1.74,-1.07 0.49,-0.46 0.87,-1.05 1.13,-1.74l4.08 0.73c-0.33,1.21 -0.91,2.26 -1.76,3.16 -0.84,0.9 -1.89,1.6 -3.16,2.1 -1.26,0.49 -2.69,0.73 -4.31,0.73zm14.29 7.86l0 -30.46 4.21 0 0 3.59 0.36 0c0.25,-0.46 0.61,-0.99 1.08,-1.6 0.47,-0.61 1.13,-1.13 1.96,-1.59 0.84,-0.45 1.95,-0.69 3.32,-0.69 1.79,0 3.38,0.45 4.79,1.36 1.4,0.9 2.5,2.21 3.3,3.91 0.81,1.7 1.21,3.75 1.21,6.14 0,2.4 -0.4,4.45 -1.19,6.16 -0.8,1.7 -1.9,3.01 -3.29,3.94 -1.4,0.91 -2.99,1.36 -4.78,1.36 -1.34,0 -2.44,-0.22 -3.3,-0.67 -0.84,-0.45 -1.51,-0.98 -1.99,-1.59 -0.48,-0.6 -0.85,-1.14 -1.11,-1.61l-0.26 0 0 11.75 -4.31 0zm4.22 -19.38c0,1.55 0.23,2.92 0.68,4.09 0.45,1.18 1.11,2.09 1.96,2.76 0.86,0.65 1.91,0.98 3.15,0.98 1.29,0 2.36,-0.34 3.23,-1.02 0.86,-0.7 1.52,-1.63 1.96,-2.82 0.45,-1.18 0.68,-2.51 0.68,-3.99 0,-1.46 -0.22,-2.78 -0.67,-3.94 -0.43,-1.16 -1.08,-2.08 -1.96,-2.76 -0.86,-0.67 -1.94,-1 -3.24,-1 -1.25,0 -2.31,0.32 -3.18,0.96 -0.85,0.65 -1.5,1.55 -1.94,2.7 -0.45,1.15 -0.67,2.5 -0.67,4.04zm35.86 -1.86l0 3.73 -12 0 0 -3.73 12 0zm-10.79 -9.22l0 22.15 -4.23 0 0 -22.15 4.23 0zm13.8 0l0 22.15 -4.21 0 0 -22.15 4.21 0zm15.32 22.6c-2.19,0 -4.07,-0.47 -5.64,-1.4 -1.57,-0.94 -2.78,-2.26 -3.64,-3.96 -0.84,-1.72 -1.26,-3.72 -1.26,-6.02 0,-2.27 0.42,-4.27 1.26,-6 0.86,-1.73 2.05,-3.08 3.58,-4.05 1.54,-0.97 3.34,-1.46 5.39,-1.46 1.25,0 2.47,0.21 3.64,0.62 1.17,0.42 2.22,1.06 3.16,1.95 0.93,0.89 1.67,2.03 2.2,3.45 0.54,1.4 0.81,3.11 0.81,5.12l0 1.52 -17.61 0 0 -3.22 13.39 0c0,-1.14 -0.23,-2.14 -0.7,-3.02 -0.46,-0.88 -1.11,-1.58 -1.94,-2.09 -0.83,-0.51 -1.8,-0.76 -2.92,-0.76 -1.21,0 -2.27,0.29 -3.17,0.89 -0.89,0.59 -1.59,1.35 -2.08,2.31 -0.48,0.94 -0.72,1.96 -0.72,3.07l0 2.52c0,1.48 0.26,2.74 0.78,3.78 0.53,1.04 1.27,1.83 2.21,2.38 0.94,0.54 2.04,0.81 3.3,0.81 0.82,0 1.56,-0.12 2.24,-0.35 0.67,-0.24 1.25,-0.59 1.74,-1.07 0.49,-0.46 0.87,-1.05 1.13,-1.74l4.08 0.73c-0.33,1.21 -0.92,2.26 -1.76,3.16 -0.84,0.9 -1.89,1.6 -3.16,2.1 -1.26,0.49 -2.7,0.73 -4.31,0.73zm12.33 -18.88l0 -3.72 18.69 0 0 3.72 -7.22 0 0 18.43 -4.21 0 0 -18.43 -7.26 0zm35.39 4.09l0 3.73 -13.09 0 0 -3.73 13.09 0zm18.18 9.01l7.16 -16.82 3.72 0 -9.28 22.15 -3.2 0 -9.08 -22.15 3.67 0 7.01 16.82zm-8.2 -16.82l0 22.15 -4.23 0 0 -22.15 4.23 0zm16.52 22.15l0 -22.15 4.2 0 0 22.15 -4.2 0zm16.39 0.49c-1.4,0 -2.67,-0.25 -3.8,-0.77 -1.14,-0.53 -2.04,-1.3 -2.7,-2.3 -0.65,-1 -0.98,-2.22 -0.98,-3.68 0,-1.25 0.24,-2.27 0.72,-3.08 0.48,-0.81 1.13,-1.45 1.95,-1.92 0.81,-0.47 1.73,-0.83 2.74,-1.07 1.01,-0.24 2.04,-0.42 3.08,-0.55 1.33,-0.15 2.41,-0.27 3.23,-0.37 0.83,-0.11 1.43,-0.27 1.81,-0.5 0.37,-0.24 0.56,-0.61 0.56,-1.13l0 -0.1c0,-1.26 -0.36,-2.24 -1.07,-2.93 -0.7,-0.69 -1.75,-1.04 -3.14,-1.04 -1.45,0 -2.6,0.33 -3.43,0.97 -0.83,0.63 -1.4,1.34 -1.72,2.12l-4.05 -0.93c0.48,-1.34 1.18,-2.42 2.1,-3.25 0.94,-0.84 2.01,-1.45 3.22,-1.82 1.21,-0.39 2.48,-0.58 3.82,-0.58 0.89,0 1.82,0.11 2.81,0.32 1,0.2 1.93,0.58 2.8,1.12 0.88,0.55 1.59,1.34 2.15,2.36 0.56,1.01 0.84,2.32 0.84,3.93l0 14.71 -4.22 0 0 -3.02 -0.17 0c-0.28,0.55 -0.7,1.1 -1.25,1.64 -0.56,0.54 -1.28,0.98 -2.15,1.34 -0.88,0.36 -1.93,0.53 -3.15,0.53zm0.94 -3.46c1.19,0 2.21,-0.23 3.06,-0.7 0.85,-0.48 1.5,-1.09 1.95,-1.85 0.45,-0.77 0.67,-1.59 0.67,-2.47l0 -2.85c-0.15,0.15 -0.45,0.3 -0.89,0.43 -0.43,0.13 -0.93,0.24 -1.49,0.33 -0.55,0.09 -1.1,0.17 -1.63,0.25 -0.52,0.06 -0.97,0.12 -1.32,0.17 -0.84,0.11 -1.6,0.29 -2.3,0.54 -0.68,0.24 -1.23,0.6 -1.64,1.08 -0.4,0.46 -0.6,1.07 -0.6,1.84 0,1.07 0.39,1.88 1.18,2.42 0.79,0.54 1.79,0.81 3.01,0.81zm29.9 -19.18l0 3.72 -9.91 0 0 18.43 -4.25 0 0 -22.15 14.16 0zm9.97 22.64c-1.4,0 -2.67,-0.25 -3.8,-0.77 -1.14,-0.53 -2.04,-1.3 -2.7,-2.3 -0.65,-1 -0.98,-2.22 -0.98,-3.68 0,-1.25 0.24,-2.27 0.72,-3.08 0.48,-0.81 1.13,-1.45 1.95,-1.92 0.81,-0.47 1.73,-0.83 2.74,-1.07 1.01,-0.24 2.04,-0.42 3.08,-0.55 1.33,-0.15 2.41,-0.27 3.23,-0.37 0.83,-0.11 1.43,-0.27 1.81,-0.5 0.37,-0.24 0.56,-0.61 0.56,-1.13l0 -0.1c0,-1.26 -0.36,-2.24 -1.07,-2.93 -0.7,-0.69 -1.75,-1.04 -3.14,-1.04 -1.45,0 -2.6,0.33 -3.43,0.97 -0.83,0.63 -1.4,1.34 -1.72,2.12l-4.05 -0.93c0.48,-1.34 1.18,-2.42 2.1,-3.25 0.94,-0.84 2.01,-1.45 3.22,-1.82 1.21,-0.39 2.48,-0.58 3.82,-0.58 0.89,0 1.82,0.11 2.81,0.32 1,0.2 1.94,0.58 2.8,1.12 0.88,0.55 1.59,1.34 2.15,2.36 0.56,1.01 0.84,2.32 0.84,3.93l0 14.71 -4.21 0 0 -3.02 -0.18 0c-0.28,0.55 -0.69,1.1 -1.25,1.64 -0.56,0.54 -1.28,0.98 -2.15,1.34 -0.88,0.36 -1.92,0.53 -3.15,0.53zm0.94 -3.46c1.19,0 2.21,-0.23 3.06,-0.7 0.86,-0.48 1.5,-1.09 1.95,-1.85 0.45,-0.77 0.67,-1.59 0.67,-2.47l0 -2.85c-0.15,0.15 -0.45,0.3 -0.89,0.43 -0.43,0.13 -0.93,0.24 -1.49,0.33 -0.55,0.09 -1.1,0.17 -1.62,0.25 -0.53,0.06 -0.98,0.12 -1.33,0.17 -0.84,0.11 -1.6,0.29 -2.29,0.54 -0.69,0.24 -1.24,0.6 -1.65,1.08 -0.4,0.46 -0.6,1.07 -0.6,1.84 0,1.07 0.39,1.88 1.18,2.42 0.79,0.54 1.79,0.81 3.01,0.81zm14.43 -2.88l4.41 0c0.06,0.9 0.47,1.6 1.23,2.09 0.76,0.49 1.76,0.74 2.98,0.74 1.24,0 2.3,-0.27 3.17,-0.8 0.88,-0.54 1.32,-1.37 1.32,-2.49 0,-0.67 -0.17,-1.26 -0.51,-1.76 -0.32,-0.51 -0.79,-0.91 -1.4,-1.19 -0.59,-0.27 -1.3,-0.41 -2.12,-0.41l-3.6 0 0 -3.39 3.6 0c1.22,0 2.14,-0.28 2.74,-0.84 0.61,-0.56 0.91,-1.25 0.91,-2.09 0,-0.9 -0.33,-1.63 -0.98,-2.18 -0.64,-0.55 -1.54,-0.84 -2.7,-0.84 -1.17,0 -2.14,0.27 -2.92,0.8 -0.78,0.52 -1.19,1.19 -1.23,2.02l-4.35 0c0.02,-1.24 0.4,-2.33 1.12,-3.26 0.73,-0.94 1.71,-1.67 2.94,-2.19 1.24,-0.53 2.65,-0.8 4.23,-0.8 1.64,0 3.06,0.27 4.27,0.8 1.2,0.53 2.13,1.26 2.78,2.19 0.66,0.93 1,2 1,3.22 0,1.22 -0.37,2.22 -1.1,2.99 -0.72,0.77 -1.66,1.33 -2.83,1.66l0 0.23c0.86,0.06 1.62,0.32 2.28,0.78 0.67,0.46 1.18,1.07 1.56,1.83 0.37,0.76 0.56,1.62 0.56,2.59 0,1.35 -0.37,2.52 -1.12,3.51 -0.74,0.99 -1.77,1.76 -3.09,2.3 -1.31,0.52 -2.8,0.79 -4.49,0.79 -1.63,0 -3.1,-0.25 -4.39,-0.77 -1.29,-0.51 -2.32,-1.24 -3.08,-2.19 -0.75,-0.94 -1.14,-2.05 -1.19,-3.34zm26.04 -0.19l9.76 -16.11 4.65 0 0 22.15 -4.23 0 0 -16.12 -9.72 16.12 -4.69 0 0 -22.15 4.23 0 0 16.11zm35.22 -6.89l0 3.73 -12 0 0 -3.73 12 0zm-10.79 -9.22l0 22.15 -4.22 0 0 -22.15 4.22 0zm13.8 0l0 22.15 -4.21 0 0 -22.15 4.21 0z"/>
   <path class="fil0" d="M1368.32 34.77l5.4 0 9.41 22.96 0.34 0 9.41 -22.96 5.41 0 0 29.53 -4.24 0 0 -21.37 -0.28 0 -8.71 21.33 -3.52 0 -8.71 -21.34 -0.27 0 0 21.38 -4.24 0 0 -29.53zm42.54 30.02c-1.4,0 -2.67,-0.25 -3.8,-0.77 -1.14,-0.53 -2.04,-1.3 -2.7,-2.3 -0.65,-1 -0.98,-2.22 -0.98,-3.68 0,-1.24 0.24,-2.27 0.72,-3.08 0.48,-0.81 1.13,-1.45 1.95,-1.92 0.81,-0.47 1.73,-0.83 2.74,-1.07 1.01,-0.24 2.04,-0.42 3.08,-0.54 1.33,-0.16 2.41,-0.28 3.24,-0.38 0.82,-0.11 1.42,-0.27 1.8,-0.5 0.37,-0.24 0.56,-0.61 0.56,-1.13l0 -0.1c0,-1.26 -0.36,-2.24 -1.07,-2.93 -0.7,-0.69 -1.75,-1.04 -3.14,-1.04 -1.45,0 -2.6,0.33 -3.43,0.97 -0.83,0.64 -1.4,1.34 -1.72,2.12l-4.05 -0.92c0.48,-1.35 1.18,-2.44 2.1,-3.26 0.94,-0.84 2.01,-1.44 3.22,-1.82 1.21,-0.38 2.49,-0.58 3.82,-0.58 0.88,0 1.82,0.11 2.81,0.32 1,0.2 1.93,0.58 2.8,1.13 0.88,0.54 1.59,1.33 2.15,2.35 0.56,1.01 0.84,2.32 0.84,3.93l0 14.71 -4.21 0 0 -3.02 -0.18 0c-0.28,0.55 -0.7,1.1 -1.25,1.64 -0.56,0.54 -1.28,0.99 -2.15,1.34 -0.88,0.36 -1.93,0.53 -3.15,0.53zm0.94 -3.46c1.19,0 2.21,-0.23 3.06,-0.7 0.85,-0.47 1.5,-1.09 1.94,-1.85 0.46,-0.77 0.68,-1.59 0.68,-2.47l0 -2.85c-0.15,0.15 -0.45,0.3 -0.89,0.43 -0.43,0.13 -0.93,0.24 -1.48,0.33 -0.56,0.09 -1.11,0.17 -1.64,0.25 -0.52,0.07 -0.97,0.12 -1.32,0.17 -0.84,0.11 -1.6,0.29 -2.3,0.54 -0.68,0.24 -1.23,0.61 -1.64,1.08 -0.4,0.46 -0.61,1.07 -0.61,1.84 0,1.07 0.4,1.88 1.19,2.43 0.79,0.53 1.79,0.8 3.01,0.8zm15.74 11.28l0 -30.46 4.21 0 0 3.59 0.36 0c0.25,-0.46 0.61,-0.99 1.08,-1.6 0.48,-0.6 1.13,-1.13 1.97,-1.58 0.83,-0.47 1.94,-0.7 3.31,-0.7 1.79,0 3.39,0.45 4.79,1.36 1.4,0.9 2.5,2.21 3.3,3.91 0.81,1.7 1.21,3.75 1.21,6.14 0,2.4 -0.4,4.45 -1.19,6.16 -0.8,1.7 -1.9,3.01 -3.29,3.94 -1.4,0.91 -2.99,1.37 -4.78,1.37 -1.34,0 -2.44,-0.23 -3.3,-0.68 -0.84,-0.45 -1.51,-0.98 -1.99,-1.59 -0.48,-0.6 -0.85,-1.14 -1.11,-1.61l-0.26 0 0 11.75 -4.31 0zm4.23 -19.38c0,1.56 0.22,2.92 0.67,4.09 0.46,1.18 1.11,2.1 1.97,2.76 0.85,0.65 1.9,0.98 3.14,0.98 1.29,0 2.36,-0.34 3.23,-1.02 0.86,-0.7 1.52,-1.63 1.96,-2.82 0.45,-1.18 0.68,-2.51 0.68,-3.99 0,-1.46 -0.22,-2.78 -0.66,-3.94 -0.44,-1.16 -1.09,-2.08 -1.97,-2.75 -0.86,-0.68 -1.94,-1.01 -3.24,-1.01 -1.25,0 -2.31,0.32 -3.18,0.96 -0.85,0.65 -1.5,1.55 -1.94,2.7 -0.44,1.15 -0.66,2.5 -0.66,4.04zm20.84 11.07l0 -22.15 4.31 0 0 9.29 2.07 0 7.32 -9.29 5.33 0 -8.58 10.77 8.68 11.38 -5.35 0 -6.67 -8.85 -2.8 0 0 8.85 -4.31 0zm31.12 0.45c-2.19,0 -4.06,-0.47 -5.64,-1.4 -1.57,-0.94 -2.78,-2.26 -3.63,-3.96 -0.85,-1.71 -1.28,-3.72 -1.28,-6.02 0,-2.27 0.43,-4.27 1.28,-6 0.85,-1.73 2.04,-3.08 3.57,-4.05 1.54,-0.97 3.34,-1.46 5.39,-1.46 1.25,0 2.47,0.21 3.64,0.62 1.17,0.42 2.22,1.07 3.16,1.95 0.93,0.89 1.66,2.03 2.2,3.45 0.54,1.4 0.81,3.11 0.81,5.12l0 1.53 -17.61 0 0 -3.23 13.39 0c0,-1.14 -0.23,-2.14 -0.7,-3.02 -0.46,-0.88 -1.11,-1.58 -1.94,-2.09 -0.83,-0.51 -1.8,-0.76 -2.92,-0.76 -1.21,0 -2.27,0.29 -3.17,0.89 -0.89,0.59 -1.59,1.36 -2.08,2.31 -0.48,0.94 -0.72,1.96 -0.72,3.07l0 2.52c0,1.48 0.26,2.74 0.78,3.78 0.53,1.04 1.27,1.83 2.21,2.38 0.94,0.54 2.04,0.81 3.3,0.81 0.82,0 1.56,-0.12 2.23,-0.35 0.68,-0.24 1.26,-0.59 1.75,-1.06 0.49,-0.48 0.87,-1.06 1.13,-1.75l4.08 0.74c-0.33,1.2 -0.92,2.25 -1.76,3.15 -0.84,0.9 -1.89,1.6 -3.16,2.1 -1.26,0.49 -2.7,0.73 -4.31,0.73zm12.33 -18.88l0 -3.72 18.69 0 0 3.72 -7.22 0 0 18.43 -4.21 0 0 -18.43 -7.26 0zm23.25 18.43l0 -22.15 18.08 0 0 22.15 -4.23 0 0 -18.43 -9.65 0 0 18.43 -4.2 0zm22.1 0l-0.02 -3.73 0.79 0c0.62,0 1.13,-0.13 1.55,-0.39 0.42,-0.27 0.77,-0.72 1.03,-1.36 0.27,-0.63 0.48,-1.51 0.63,-2.62 0.14,-1.13 0.25,-2.54 0.31,-4.24l0.39 -9.81 15.46 0 0 22.15 -4.22 0 0 -18.43 -7.24 0 -0.35 7.53c-0.09,1.83 -0.27,3.42 -0.56,4.79 -0.28,1.36 -0.69,2.5 -1.23,3.42 -0.54,0.9 -1.23,1.58 -2.07,2.03 -0.85,0.44 -1.88,0.66 -3.09,0.66l-1.38 0zm35.44 0.45c-2.18,0 -4.06,-0.47 -5.64,-1.4 -1.57,-0.94 -2.78,-2.26 -3.63,-3.96 -0.85,-1.71 -1.27,-3.72 -1.27,-6.02 0,-2.27 0.42,-4.27 1.27,-6 0.85,-1.73 2.04,-3.08 3.57,-4.05 1.54,-0.97 3.34,-1.46 5.4,-1.46 1.25,0 2.46,0.21 3.63,0.62 1.18,0.42 2.23,1.07 3.16,1.95 0.93,0.89 1.67,2.03 2.2,3.45 0.55,1.4 0.81,3.11 0.81,5.12l0 1.53 -17.61 0 0 -3.23 13.39 0c0,-1.14 -0.23,-2.14 -0.69,-3.02 -0.46,-0.88 -1.12,-1.58 -1.95,-2.09 -0.83,-0.51 -1.8,-0.76 -2.91,-0.76 -1.22,0 -2.27,0.29 -3.18,0.89 -0.89,0.59 -1.58,1.36 -2.07,2.31 -0.48,0.94 -0.72,1.96 -0.72,3.07l0 2.52c0,1.48 0.26,2.74 0.77,3.78 0.53,1.04 1.27,1.83 2.21,2.38 0.94,0.54 2.04,0.81 3.3,0.81 0.82,0 1.57,-0.12 2.24,-0.35 0.67,-0.24 1.25,-0.59 1.74,-1.06 0.49,-0.48 0.87,-1.06 1.13,-1.75l4.08 0.74c-0.33,1.2 -0.91,2.25 -1.76,3.15 -0.84,0.9 -1.89,1.6 -3.16,2.1 -1.26,0.49 -2.69,0.73 -4.31,0.73zm18.51 -6.49l9.77 -16.11 4.64 0 0 22.15 -4.23 0 0 -16.12 -9.71 16.12 -4.69 0 0 -22.15 4.22 0 0 16.11zm7.92 -23.61l3.55 0c0,1.63 -0.58,2.95 -1.73,3.97 -1.15,1.01 -2.69,1.51 -4.64,1.51 -1.95,0 -3.49,-0.5 -4.63,-1.51 -1.15,-1.02 -1.72,-2.34 -1.72,-3.97l3.53 0c0,0.72 0.21,1.36 0.64,1.92 0.42,0.55 1.15,0.82 2.18,0.82 1.01,0 1.73,-0.27 2.16,-0.82 0.44,-0.55 0.66,-1.19 0.66,-1.92zm21.62 30.1c-2.14,0 -3.99,-0.48 -5.54,-1.46 -1.54,-0.98 -2.72,-2.33 -3.55,-4.05 -0.82,-1.72 -1.24,-3.69 -1.24,-5.91 0,-2.25 0.43,-4.24 1.27,-5.96 0.85,-1.73 2.04,-3.08 3.58,-4.05 1.54,-0.97 3.35,-1.46 5.44,-1.46 1.68,0 3.18,0.32 4.5,0.94 1.31,0.62 2.38,1.48 3.18,2.6 0.82,1.11 1.31,2.41 1.46,3.91l-4.2 0c-0.23,-1.04 -0.76,-1.94 -1.58,-2.69 -0.82,-0.75 -1.92,-1.12 -3.29,-1.12 -1.2,0 -2.26,0.32 -3.16,0.95 -0.89,0.62 -1.59,1.52 -2.09,2.68 -0.5,1.16 -0.75,2.52 -0.75,4.1 0,1.61 0.25,3.01 0.74,4.18 0.49,1.17 1.18,2.08 2.07,2.73 0.91,0.64 1.97,0.96 3.19,0.96 0.81,0 1.56,-0.15 2.22,-0.44 0.67,-0.31 1.23,-0.75 1.69,-1.32 0.46,-0.56 0.78,-1.25 0.96,-2.05l4.2 0c-0.15,1.44 -0.62,2.72 -1.4,3.84 -0.78,1.13 -1.82,2.01 -3.13,2.66 -1.29,0.64 -2.82,0.96 -4.57,0.96zm33.83 -3.62l-3.85 0 -5.82 -8.65 0 -0.29 4.14 0 5.53 8.94zm0 -17.71l-5.53 8.94 -4.14 0 0 -0.29 5.82 -8.65 3.85 0zm8.1 17.71l-3.86 0 -5.82 -8.65 0 -0.29 4.14 0 5.54 8.94zm0 -17.71l-5.54 8.94 -4.14 0 0 -0.29 5.82 -8.65 3.86 0zm31.61 6.12c0,3.15 -0.57,5.86 -1.73,8.13 -1.15,2.26 -2.73,4 -4.74,5.22 -2,1.21 -4.27,1.82 -6.82,1.82 -2.56,0 -4.84,-0.61 -6.85,-1.82 -2,-1.22 -3.58,-2.97 -4.73,-5.23 -1.16,-2.27 -1.73,-4.98 -1.73,-8.12 0,-3.16 0.57,-5.86 1.73,-8.12 1.15,-2.27 2.73,-4.01 4.73,-5.22 2.01,-1.23 4.29,-1.84 6.85,-1.84 2.55,0 4.82,0.61 6.82,1.84 2.01,1.21 3.59,2.95 4.74,5.22 1.16,2.26 1.73,4.96 1.73,8.12zm-4.41 0c0,-2.41 -0.39,-4.43 -1.17,-6.08 -0.76,-1.65 -1.82,-2.9 -3.17,-3.75 -1.34,-0.85 -2.85,-1.28 -4.54,-1.28 -1.7,0 -3.22,0.43 -4.56,1.28 -1.34,0.85 -2.39,2.1 -3.17,3.75 -0.77,1.65 -1.16,3.67 -1.16,6.08 0,2.4 0.39,4.43 1.16,6.08 0.78,1.65 1.83,2.9 3.17,3.75 1.34,0.85 2.86,1.27 4.56,1.27 1.69,0 3.2,-0.42 4.54,-1.27 1.35,-0.85 2.41,-2.1 3.17,-3.75 0.78,-1.65 1.17,-3.68 1.17,-6.08zm9.16 14.76l0 -2.95 12 -15.25 0 -0.2 -11.61 0 0 -3.75 16.99 0 0 3.15 -11.54 15.05 0 0.2 11.94 0 0 3.75 -17.78 0zm31.57 0.45c-2.08,0 -3.89,-0.47 -5.44,-1.43 -1.54,-0.95 -2.75,-2.28 -3.6,-3.99 -0.86,-1.71 -1.29,-3.71 -1.29,-6 0,-2.3 0.43,-4.31 1.29,-6.03 0.85,-1.72 2.06,-3.06 3.6,-4.01 1.55,-0.95 3.36,-1.43 5.44,-1.43 2.07,0 3.89,0.48 5.44,1.43 1.55,0.95 2.75,2.29 3.6,4.01 0.86,1.72 1.29,3.73 1.29,6.03 0,2.29 -0.43,4.29 -1.29,6 -0.85,1.71 -2.05,3.04 -3.6,3.99 -1.55,0.96 -3.37,1.43 -5.44,1.43zm0.01 -3.62c1.35,0 2.47,-0.35 3.35,-1.07 0.88,-0.71 1.54,-1.65 1.96,-2.84 0.44,-1.18 0.65,-2.48 0.65,-3.91 0,-1.41 -0.21,-2.71 -0.65,-3.89 -0.42,-1.19 -1.08,-2.15 -1.96,-2.87 -0.88,-0.72 -2,-1.08 -3.35,-1.08 -1.35,0 -2.48,0.36 -3.37,1.08 -0.89,0.72 -1.54,1.68 -1.98,2.87 -0.42,1.18 -0.63,2.48 -0.63,3.89 0,1.43 0.21,2.73 0.63,3.91 0.44,1.19 1.09,2.13 1.98,2.84 0.89,0.72 2.02,1.07 3.37,1.07zm19.44 -9.98l0 13.15 -4.31 0 0 -22.15 4.14 0 0 3.61 0.27 0c0.51,-1.18 1.31,-2.12 2.4,-2.83 1.09,-0.71 2.47,-1.07 4.14,-1.07 1.51,0 2.83,0.32 3.96,0.96 1.13,0.62 2.02,1.55 2.64,2.79 0.62,1.24 0.94,2.78 0.94,4.6l0 14.09 -4.31 0 0 -13.57c0,-1.6 -0.42,-2.86 -1.26,-3.76 -0.84,-0.91 -1.98,-1.37 -3.45,-1.37 -1,0 -1.89,0.22 -2.66,0.65 -0.77,0.43 -1.38,1.07 -1.84,1.9 -0.44,0.83 -0.66,1.83 -0.66,3zm19.56 9.98l5.54 -8.94 4.14 0 0 0.29 -5.83 8.65 -3.85 0zm0 -17.71l3.85 0 5.83 8.65 0 0.29 -4.14 0 -5.54 -8.94zm8.13 17.71l5.54 -8.94 4.14 0 0 0.29 -5.83 8.65 -3.85 0zm0 -17.71l3.85 0 5.83 8.65 0 0.29 -4.14 0 -5.54 -8.94z"/>
   <path class="fil1" d="M926.98 1108.76c90.15,-3.37 177.96,-29.65 255.14,-76.36 77.18,-46.71 141.19,-112.31 185.99,-190.62 44.8,-78.3 68.91,-166.73 70.06,-256.94 1.16,-90.21 -20.69,-179.22 -63.47,-258.65l-467.57 251.86 19.85 530.71z"/>
   <path class="fil2" d="M1374.67 326.69c-56.81,-106.08 -147.96,-189.72 -258.51,-237.23 -110.56,-47.5 -233.97,-56.05 -350.02,-24.25l140.35 512.2 468.18 -250.72z"/>
   <path class="fil3" d="M769.04 64.42c-70.84,18.98 -136.97,52.42 -194.25,98.23 -57.27,45.8 -104.43,102.96 -138.52,167.89 -34.09,64.93 -54.36,136.21 -59.54,209.36 -5.17,73.15 4.85,146.58 29.45,215.66l500.31 -178.15 -137.45 -512.99z"/>
   <path class="fil4" d="M393.5 714.86c31.26,116.65 101.34,219.16 198.68,290.63 97.34,71.47 216.13,107.63 336.79,102.52l-22.48 -530.6 -512.99 137.45z"/>
   <circle class="fil5" transform="matrix(-0.258819 -0.965926 0.965926 -0.258819 906.488 577.407)" r="312.4"/>
   <path class="fil6" d="M524.93 340.92l0 29.54 -7.13 0 0 -22.87 -0.17 0 -6.61 4.03 0 -6.17 7.29 -4.53 6.62 0zm17.76 29.94c-2.25,0 -4.24,-0.38 -5.98,-1.15 -1.73,-0.78 -3.1,-1.85 -4.1,-3.22 -1,-1.36 -1.51,-2.93 -1.53,-4.71l7.18 0c0.03,0.64 0.24,1.21 0.62,1.71 0.39,0.49 0.91,0.88 1.57,1.16 0.67,0.27 1.42,0.41 2.27,0.41 0.85,0 1.59,-0.15 2.24,-0.44 0.65,-0.31 1.16,-0.73 1.52,-1.26 0.37,-0.54 0.55,-1.15 0.54,-1.84 0.01,-0.69 -0.19,-1.31 -0.59,-1.85 -0.41,-0.54 -0.98,-0.96 -1.72,-1.25 -0.73,-0.3 -1.6,-0.45 -2.6,-0.45l-2.86 0 0 -5.08 2.86 0c0.88,0 1.65,-0.14 2.31,-0.43 0.67,-0.29 1.2,-0.69 1.57,-1.21 0.38,-0.53 0.56,-1.14 0.55,-1.82 0.01,-0.66 -0.15,-1.24 -0.47,-1.74 -0.32,-0.51 -0.77,-0.91 -1.35,-1.19 -0.56,-0.28 -1.22,-0.41 -1.97,-0.41 -0.79,0 -1.51,0.13 -2.15,0.41 -0.64,0.28 -1.14,0.68 -1.51,1.19 -0.38,0.51 -0.58,1.1 -0.59,1.77l-6.83 0c0.02,-1.76 0.51,-3.31 1.47,-4.64 0.97,-1.35 2.27,-2.4 3.93,-3.16 1.66,-0.76 3.55,-1.14 5.68,-1.14 2.12,0 3.97,0.37 5.58,1.11 1.61,0.74 2.86,1.75 3.75,3.03 0.9,1.27 1.34,2.7 1.34,4.31 0.01,1.66 -0.53,3.03 -1.63,4.11 -1.09,1.08 -2.49,1.74 -4.19,1.99l0 0.23c2.28,0.27 4.01,1.01 5.17,2.22 1.17,1.21 1.76,2.73 1.75,4.55 0,1.71 -0.51,3.23 -1.52,4.55 -1,1.32 -2.39,2.36 -4.18,3.12 -1.78,0.75 -3.82,1.12 -6.13,1.12zm32.4 -5.94l0 -1.56c0,-1.21 0.26,-2.33 0.77,-3.36 0.53,-1.03 1.3,-1.85 2.3,-2.48 1,-0.62 2.22,-0.94 3.66,-0.94 1.47,0 2.71,0.32 3.71,0.94 1.01,0.62 1.77,1.44 2.27,2.47 0.53,1.02 0.79,2.14 0.79,3.37l0 1.56c0,1.21 -0.26,2.33 -0.79,3.36 -0.51,1.03 -1.28,1.86 -2.29,2.48 -1.01,0.63 -2.24,0.94 -3.69,0.94 -1.46,0 -2.69,-0.31 -3.69,-0.94 -1,-0.62 -1.76,-1.45 -2.28,-2.48 -0.51,-1.03 -0.76,-2.15 -0.76,-3.36zm4.6 -1.56l0 1.56c0,0.62 0.15,1.21 0.45,1.78 0.3,0.56 0.86,0.85 1.68,0.85 0.84,0 1.4,-0.28 1.69,-0.83 0.29,-0.55 0.43,-1.15 0.43,-1.8l0 -1.56c0,-0.64 -0.14,-1.25 -0.42,-1.81 -0.27,-0.58 -0.83,-0.87 -1.7,-0.87 -0.81,0 -1.36,0.29 -1.67,0.87 -0.31,0.56 -0.46,1.17 -0.46,1.81zm-19.92 -15.34l0 -1.56c0,-1.23 0.27,-2.35 0.79,-3.38 0.54,-1.02 1.31,-1.84 2.31,-2.46 1,-0.62 2.21,-0.94 3.64,-0.94 1.47,0 2.7,0.32 3.7,0.94 1.01,0.62 1.77,1.44 2.29,2.46 0.53,1.03 0.78,2.15 0.78,3.38l0 1.56c0,1.23 -0.26,2.35 -0.79,3.37 -0.52,1.02 -1.28,1.84 -2.29,2.44 -1.01,0.61 -2.24,0.91 -3.69,0.91 -1.46,0 -2.69,-0.31 -3.7,-0.92 -1,-0.62 -1.76,-1.44 -2.27,-2.46 -0.51,-1.02 -0.77,-2.13 -0.77,-3.34zm4.65 -1.56l0 1.56c0,0.64 0.14,1.24 0.44,1.8 0.31,0.55 0.86,0.82 1.65,0.82 0.84,0 1.4,-0.27 1.68,-0.82 0.29,-0.56 0.44,-1.16 0.44,-1.8l0 -1.56c0,-0.64 -0.14,-1.25 -0.41,-1.82 -0.27,-0.57 -0.84,-0.86 -1.71,-0.86 -0.81,0 -1.37,0.29 -1.66,0.88 -0.29,0.58 -0.43,1.19 -0.43,1.8zm-2.47 24l20.3 -29.54 3.94 0 -20.31 29.54 -3.93 0z"/>
   <path class="fil6" d="M646.76 893.87l0 29.54 -7.12 0 0 -22.87 -0.17 0 -6.61 4.03 0 -6.17 7.28 -4.53 6.62 0zm20.19 0l0 29.54 -7.12 0 0 -22.87 -0.18 0 -6.6 4.03 0 -6.17 7.28 -4.53 6.62 0zm23.07 24l0 -1.56c0,-1.21 0.26,-2.33 0.78,-3.36 0.53,-1.03 1.29,-1.85 2.29,-2.48 1,-0.62 2.22,-0.94 3.67,-0.94 1.47,0 2.7,0.32 3.7,0.94 1.01,0.62 1.77,1.44 2.28,2.47 0.52,1.02 0.78,2.14 0.78,3.37l0 1.56c0,1.21 -0.26,2.33 -0.78,3.36 -0.52,1.03 -1.28,1.86 -2.29,2.48 -1.01,0.62 -2.24,0.94 -3.69,0.94 -1.46,0 -2.69,-0.32 -3.69,-0.94 -1,-0.62 -1.76,-1.45 -2.28,-2.48 -0.51,-1.03 -0.77,-2.15 -0.77,-3.36zm4.6 -1.56l0 1.56c0,0.62 0.15,1.21 0.45,1.78 0.31,0.56 0.87,0.85 1.69,0.85 0.83,0 1.39,-0.28 1.68,-0.83 0.29,-0.56 0.44,-1.16 0.44,-1.8l0 -1.56c0,-0.64 -0.14,-1.25 -0.42,-1.81 -0.27,-0.58 -0.84,-0.87 -1.7,-0.87 -0.81,0 -1.37,0.29 -1.68,0.87 -0.3,0.56 -0.46,1.17 -0.46,1.81zm-19.91 -15.34l0 -1.56c0,-1.23 0.26,-2.35 0.79,-3.38 0.54,-1.02 1.31,-1.85 2.31,-2.46 1,-0.63 2.21,-0.94 3.63,-0.94 1.47,0 2.71,0.31 3.71,0.94 1.01,0.61 1.77,1.44 2.29,2.46 0.52,1.03 0.78,2.15 0.78,3.38l0 1.56c0,1.23 -0.27,2.35 -0.79,3.37 -0.52,1.02 -1.29,1.83 -2.3,2.44 -1.01,0.61 -2.24,0.91 -3.69,0.91 -1.45,0 -2.68,-0.31 -3.69,-0.92 -1,-0.62 -1.76,-1.44 -2.28,-2.46 -0.51,-1.02 -0.76,-2.13 -0.76,-3.34zm4.64 -1.56l0 1.56c0,0.64 0.15,1.24 0.45,1.8 0.3,0.55 0.85,0.82 1.64,0.82 0.85,0 1.41,-0.27 1.69,-0.82 0.29,-0.56 0.43,-1.16 0.43,-1.8l0 -1.56c0,-0.65 -0.13,-1.25 -0.4,-1.82 -0.27,-0.57 -0.84,-0.86 -1.72,-0.86 -0.81,0 -1.36,0.29 -1.66,0.88 -0.29,0.58 -0.43,1.19 -0.43,1.8zm-2.47 24l20.31 -29.54 3.93 0 -20.3 29.54 -3.94 0z"/>
   <path class="fil6" d="M1084.13 184.72l0 29.54 -7.13 0 0 -22.87 -0.17 0 -6.61 4.03 0 -6.17 7.29 -4.53 6.62 0zm20.18 0l0 29.54 -7.12 0 0 -22.87 -0.17 0 -6.61 4.03 0 -6.17 7.28 -4.53 6.62 0zm23.07 24l0 -1.56c0,-1.21 0.26,-2.33 0.78,-3.36 0.53,-1.03 1.3,-1.85 2.3,-2.48 0.99,-0.62 2.22,-0.94 3.66,-0.94 1.47,0 2.71,0.32 3.7,0.94 1.01,0.62 1.77,1.44 2.29,2.47 0.51,1.02 0.77,2.14 0.77,3.37l0 1.56c0,1.21 -0.26,2.33 -0.77,3.36 -0.53,1.03 -1.29,1.86 -2.3,2.48 -1.01,0.63 -2.24,0.94 -3.69,0.94 -1.46,0 -2.69,-0.31 -3.69,-0.94 -1,-0.62 -1.76,-1.45 -2.28,-2.48 -0.51,-1.03 -0.77,-2.15 -0.77,-3.36zm4.6 -1.56l0 1.56c0,0.61 0.15,1.21 0.45,1.77 0.31,0.57 0.87,0.85 1.69,0.85 0.83,0 1.4,-0.27 1.69,-0.82 0.28,-0.55 0.43,-1.16 0.43,-1.8l0 -1.56c0,-0.64 -0.14,-1.25 -0.42,-1.81 -0.27,-0.58 -0.84,-0.87 -1.7,-0.87 -0.81,0 -1.37,0.29 -1.68,0.87 -0.3,0.56 -0.46,1.17 -0.46,1.81zm-19.91 -15.34l0 -1.56c0,-1.23 0.26,-2.36 0.79,-3.37 0.54,-1.03 1.31,-1.86 2.31,-2.47 1,-0.63 2.21,-0.94 3.63,-0.94 1.47,0 2.71,0.31 3.71,0.94 1.01,0.61 1.77,1.44 2.29,2.47 0.52,1.01 0.78,2.14 0.78,3.37l0 1.56c0,1.23 -0.26,2.35 -0.79,3.37 -0.52,1.02 -1.29,1.83 -2.3,2.44 -1,0.61 -2.24,0.91 -3.69,0.91 -1.45,0 -2.68,-0.31 -3.69,-0.93 -1,-0.61 -1.76,-1.43 -2.28,-2.45 -0.51,-1.02 -0.76,-2.13 -0.76,-3.34zm4.64 -1.56l0 1.56c0,0.64 0.15,1.24 0.45,1.8 0.3,0.55 0.86,0.82 1.64,0.82 0.85,0 1.41,-0.27 1.69,-0.82 0.29,-0.56 0.43,-1.16 0.43,-1.8l0 -1.56c0,-0.64 -0.13,-1.25 -0.4,-1.82 -0.27,-0.57 -0.84,-0.86 -1.72,-0.86 -0.81,0 -1.36,0.29 -1.66,0.88 -0.28,0.58 -0.43,1.19 -0.43,1.8zm-2.47 24l20.31 -29.54 3.94 0 -20.31 29.54 -3.94 0z"/>
   <path class="fil6" d="M1243.45 772.04l0 29.53 -7.13 0 0 -22.87 -0.17 0 -6.6 4.04 0 -6.17 7.28 -4.53 6.62 0zm6.53 29.53l0 -5.13 10.77 -9.43c0.81,-0.73 1.5,-1.4 2.06,-2.01 0.57,-0.62 1,-1.23 1.3,-1.85 0.3,-0.62 0.45,-1.3 0.45,-2.03 0,-0.81 -0.18,-1.51 -0.53,-2.09 -0.36,-0.59 -0.85,-1.04 -1.48,-1.36 -0.62,-0.31 -1.34,-0.47 -2.15,-0.47 -0.81,0 -1.53,0.17 -2.14,0.5 -0.62,0.33 -1.1,0.81 -1.45,1.43 -0.33,0.63 -0.5,1.38 -0.5,2.28l-6.77 0c0,-2.01 0.46,-3.74 1.36,-5.21 0.91,-1.46 2.18,-2.58 3.81,-3.37 1.64,-0.8 3.55,-1.2 5.73,-1.2 2.24,0 4.18,0.38 5.83,1.13 1.66,0.75 2.94,1.79 3.84,3.14 0.92,1.34 1.37,2.89 1.37,4.66 0,1.12 -0.22,2.24 -0.68,3.34 -0.45,1.11 -1.26,2.33 -2.43,3.67 -1.17,1.34 -2.82,2.94 -4.96,4.8l-3.54 3.26 0 0.19 11.97 0 0 5.75 -21.86 0zm42.44 -5.53l0 -1.56c0,-1.22 0.26,-2.33 0.78,-3.36 0.53,-1.03 1.29,-1.86 2.29,-2.48 1,-0.63 2.22,-0.94 3.66,-0.94 1.48,0 2.71,0.31 3.71,0.94 1.01,0.61 1.77,1.43 2.28,2.46 0.52,1.02 0.78,2.15 0.78,3.38l0 1.56c0,1.21 -0.26,2.32 -0.78,3.35 -0.52,1.03 -1.28,1.86 -2.29,2.48 -1.02,0.63 -2.24,0.94 -3.7,0.94 -1.46,0 -2.69,-0.31 -3.69,-0.94 -1,-0.62 -1.76,-1.45 -2.28,-2.48 -0.51,-1.03 -0.76,-2.14 -0.76,-3.35zm4.6 -1.56l0 1.56c0,0.61 0.15,1.2 0.45,1.77 0.3,0.56 0.87,0.85 1.68,0.85 0.84,0 1.4,-0.28 1.69,-0.82 0.29,-0.56 0.43,-1.16 0.43,-1.8l0 -1.56c0,-0.65 -0.13,-1.25 -0.41,-1.82 -0.27,-0.58 -0.84,-0.86 -1.71,-0.86 -0.8,0 -1.36,0.28 -1.67,0.86 -0.31,0.57 -0.46,1.17 -0.46,1.82zm-19.92 -15.35l0 -1.56c0,-1.23 0.27,-2.35 0.8,-3.37 0.53,-1.03 1.3,-1.85 2.3,-2.47 1,-0.62 2.22,-0.93 3.64,-0.93 1.47,0 2.7,0.31 3.71,0.93 1,0.62 1.77,1.44 2.29,2.47 0.52,1.02 0.78,2.14 0.78,3.37l0 1.56c0,1.23 -0.27,2.36 -0.8,3.38 -0.52,1.02 -1.28,1.83 -2.29,2.43 -1.01,0.61 -2.24,0.91 -3.69,0.91 -1.46,0 -2.69,-0.31 -3.7,-0.92 -0.99,-0.62 -1.75,-1.43 -2.27,-2.45 -0.51,-1.02 -0.77,-2.14 -0.77,-3.35zm4.65 -1.56l0 1.56c0,0.64 0.14,1.25 0.44,1.8 0.31,0.55 0.86,0.83 1.65,0.83 0.84,0 1.41,-0.28 1.69,-0.83 0.29,-0.55 0.43,-1.16 0.43,-1.8l0 -1.56c0,-0.64 -0.14,-1.24 -0.41,-1.81 -0.27,-0.58 -0.84,-0.87 -1.71,-0.87 -0.81,0 -1.36,0.29 -1.66,0.88 -0.29,0.59 -0.43,1.19 -0.43,1.8zm-2.47 24l20.31 -29.53 3.94 0 -20.31 29.53 -3.94 0z"/>
   <polyline class="fil7 str0" points="598.13,165.83 449.74,17.44 399.75,17.44 "/>
   <polyline class="fil7 str1" points="593.44,967.14 446.22,1113.97 396.63,1113.97 "/>
   <polyline class="fil7 str2" points="1227.62,879.67 1374.84,1026.5 1424.43,1026.5 "/>
   <polyline class="fil7 str3" points="1143.27,195.51 1290.49,48.68 1340.08,48.68 "/>
  </g>
 </g>
</svg>
