<svg width="669" height="379" viewBox="0 0 669 379" fill="none" xmlns="http://www.w3.org/2000/svg">
<mask id="mask0_1_760" style="mask-type:alpha" maskUnits="userSpaceOnUse" x="0" y="0" width="669" height="379">
<rect width="669" height="379" fill="white"/>
</mask>
<g mask="url(#mask0_1_760)">
<path d="M0.740275 14.0527V0.100581H10.2711V2.83924H4.1125V5.01926H5.9519C7.08732 5.01926 8.07515 5.2032 8.91537 5.57108C9.76012 5.93896 10.4119 6.45671 10.8706 7.12435C11.3338 7.79198 11.5655 8.5777 11.5655 9.4815C11.5655 10.3853 11.3338 11.1801 10.8706 11.8659C10.4119 12.5517 9.76012 13.0876 8.91537 13.4737C8.07515 13.8597 7.08732 14.0527 5.9519 14.0527H0.740275ZM4.1125 11.3822H5.9519C6.4424 11.3822 6.8557 11.2982 7.19178 11.1301C7.53241 10.9576 7.78902 10.7259 7.9616 10.4353C8.13873 10.14 8.22729 9.81304 8.22729 9.45425C8.22729 8.93649 8.032 8.50503 7.64141 8.15986C7.25083 7.81014 6.68765 7.63529 5.9519 7.63529H4.1125V11.3822ZM16.1299 14.2299C15.4622 14.2299 14.8696 14.1186 14.3518 13.896C13.8386 13.669 13.4321 13.3283 13.1323 12.8742C12.8371 12.4154 12.6895 11.8409 12.6895 11.1506C12.6895 10.5692 12.7917 10.0787 12.9961 9.67906C13.2005 9.27939 13.4821 8.95466 13.8409 8.70486C14.1997 8.45507 14.6129 8.26659 15.0807 8.13942C15.5485 8.00771 16.0481 7.91915 16.5795 7.87373C17.1745 7.81923 17.6536 7.76246 18.017 7.70341C18.3803 7.63983 18.6437 7.55127 18.8072 7.43772C18.9753 7.31964 19.0593 7.15387 19.0593 6.94041V6.90634C19.0593 6.55663 18.9389 6.2864 18.6982 6.09565C18.4575 5.9049 18.1328 5.80952 17.724 5.80952C17.2835 5.80952 16.9292 5.9049 16.6613 6.09565C16.3933 6.2864 16.223 6.54982 16.1503 6.88591L13.0778 6.7769C13.1687 6.14106 13.4026 5.57335 13.7795 5.07376C14.161 4.56963 14.6833 4.1745 15.3464 3.88837C16.0141 3.5977 16.8157 3.45237 17.7513 3.45237C18.4189 3.45237 19.0343 3.53185 19.5975 3.69081C20.1607 3.84523 20.6512 4.07231 21.069 4.37207C21.4868 4.66728 21.8093 5.03061 22.0364 5.46208C22.268 5.89354 22.3838 6.38632 22.3838 6.94041V14.0527H19.25V12.5948H19.1683C18.9821 12.9491 18.7436 13.2489 18.453 13.4941C18.1668 13.7394 17.8285 13.9233 17.4379 14.0459C17.0518 14.1685 16.6158 14.2299 16.1299 14.2299ZM17.1586 12.0498C17.5174 12.0498 17.8398 11.9772 18.126 11.8318C18.4166 11.6865 18.6483 11.4867 18.8208 11.2323C18.9934 10.9735 19.0797 10.6737 19.0797 10.3331V9.33843C18.9844 9.38839 18.8685 9.43381 18.7323 9.47468C18.6006 9.51556 18.4552 9.55416 18.2963 9.5905C18.1373 9.62683 17.9738 9.65862 17.8058 9.68587C17.6377 9.71312 17.4765 9.7381 17.3221 9.76081C17.0087 9.81077 16.7407 9.88798 16.5182 9.99244C16.3002 10.0969 16.1322 10.2332 16.0141 10.4012C15.9005 10.5647 15.8438 10.76 15.8438 10.9871C15.8438 11.3322 15.9664 11.5957 16.2116 11.7773C16.4614 11.959 16.7771 12.0498 17.1586 12.0498ZM23.9098 14.0527L23.8894 11.4844H24.2232C24.4503 11.4844 24.6479 11.4254 24.8159 11.3073C24.984 11.1892 25.1248 11.0007 25.2383 10.7418C25.3518 10.4784 25.4427 10.14 25.5108 9.72675C25.5789 9.31345 25.6221 8.81159 25.6402 8.22117L25.8106 3.58862H34.0946V14.0527H30.9404V6.13652H28.774L28.6105 9.14768C28.5696 10.0333 28.4538 10.7895 28.2631 11.4163C28.0769 12.0385 27.8225 12.5426 27.5001 12.9287C27.1821 13.3147 26.8052 13.5986 26.3692 13.7802C25.9332 13.9619 25.4404 14.0527 24.8909 14.0527H23.9098ZM39.0797 14.2299C38.4121 14.2299 37.8194 14.1186 37.3017 13.896C36.7884 13.669 36.382 13.3283 36.0822 12.8742C35.787 12.4154 35.6394 11.8409 35.6394 11.1506C35.6394 10.5692 35.7416 10.0787 35.946 9.67906C36.1503 9.27939 36.4319 8.95466 36.7907 8.70486C37.1495 8.45507 37.5628 8.26659 38.0306 8.13942C38.4984 8.00771 38.998 7.91915 39.5294 7.87373C40.1243 7.81923 40.6035 7.76246 40.9668 7.70341C41.3302 7.63983 41.5936 7.55127 41.7571 7.43772C41.9251 7.31964 42.0091 7.15387 42.0091 6.94041V6.90634C42.0091 6.55663 41.8888 6.2864 41.6481 6.09565C41.4074 5.9049 41.0826 5.80952 40.6739 5.80952C40.2333 5.80952 39.8791 5.9049 39.6111 6.09565C39.3432 6.2864 39.1728 6.54982 39.1002 6.88591L36.0277 6.7769C36.1185 6.14106 36.3524 5.57335 36.7294 5.07376C37.1109 4.56963 37.6332 4.1745 38.2963 3.88837C38.9639 3.5977 39.7655 3.45237 40.7011 3.45237C41.3688 3.45237 41.9842 3.53185 42.5473 3.69081C43.1105 3.84523 43.601 4.07231 44.0189 4.37207C44.4367 4.66728 44.7592 5.03061 44.9862 5.46208C45.2179 5.89354 45.3337 6.38632 45.3337 6.94041V14.0527H42.1999V12.5948H42.1181C41.9319 12.9491 41.6935 13.2489 41.4028 13.4941C41.1167 13.7394 40.7783 13.9233 40.3878 14.0459C40.0017 14.1685 39.5657 14.2299 39.0797 14.2299ZM40.1084 12.0498C40.4672 12.0498 40.7897 11.9772 41.0758 11.8318C41.3665 11.6865 41.5981 11.4867 41.7707 11.2323C41.9433 10.9735 42.0296 10.6737 42.0296 10.3331V9.33843C41.9342 9.38839 41.8184 9.43381 41.6821 9.47468C41.5504 9.51556 41.4051 9.55416 41.2461 9.5905C41.0872 9.62683 40.9237 9.65862 40.7556 9.68587C40.5876 9.71312 40.4264 9.7381 40.2719 9.76081C39.9586 9.81077 39.6906 9.88798 39.4681 9.99244C39.2501 10.0969 39.082 10.2332 38.9639 10.4012C38.8504 10.5647 38.7936 10.76 38.7936 10.9871C38.7936 11.3322 38.9162 11.5957 39.1615 11.7773C39.4113 11.959 39.7269 12.0498 40.1084 12.0498ZM54.7487 7.51948V10.0606H49.3804V7.51948H54.7487ZM50.5249 3.58862V14.0527H47.3706V3.58862H50.5249ZM56.7584 3.58862V14.0527H53.6246V3.58862H56.7584ZM63.6646 14.2503C62.561 14.2503 61.614 14.0232 60.8238 13.569C60.0381 13.1149 59.434 12.4836 59.0116 11.6751C58.5893 10.8622 58.3781 9.92204 58.3781 8.85474C58.3781 7.78289 58.5893 6.84276 59.0116 6.03433C59.4386 5.22137 60.0449 4.5878 60.8306 4.13363C61.6208 3.67945 62.5633 3.45237 63.6578 3.45237C64.6252 3.45237 65.4677 3.62722 66.1853 3.97694C66.9074 4.32665 67.4706 4.8217 67.8748 5.46208C68.2835 6.09792 68.4993 6.84503 68.522 7.70341H65.4086C65.3451 7.16749 65.1634 6.74738 64.8636 6.44309C64.5684 6.13879 64.1824 5.98665 63.7055 5.98665C63.3195 5.98665 62.9811 6.09565 62.6904 6.31365C62.3998 6.52711 62.1727 6.84503 62.0092 7.26741C61.8502 7.68525 61.7707 8.203 61.7707 8.82068C61.7707 9.43835 61.8502 9.96065 62.0092 10.3876C62.1727 10.8099 62.3998 11.1301 62.6904 11.3481C62.9811 11.5616 63.3195 11.6683 63.7055 11.6683C64.0143 11.6683 64.2868 11.6025 64.523 11.4708C64.7637 11.3391 64.9613 11.146 65.1157 10.8917C65.2701 10.6328 65.3678 10.3194 65.4086 9.95156H68.522C68.4902 10.8145 68.2745 11.5684 67.8748 12.2133C67.4797 12.8583 66.9233 13.3601 66.2057 13.7189C65.4927 14.0732 64.6456 14.2503 63.6646 14.2503ZM81.7265 7.51948V10.0606H76.3581V7.51948H81.7265ZM77.5027 3.58862V14.0527H74.3484V3.58862H77.5027ZM83.7362 3.58862V14.0527H80.6024V3.58862H83.7362ZM88.7076 14.2299C88.04 14.2299 87.4473 14.1186 86.9296 13.896C86.4163 13.669 86.0099 13.3283 85.7101 12.8742C85.4149 12.4154 85.2673 11.8409 85.2673 11.1506C85.2673 10.5692 85.3695 10.0787 85.5739 9.67906C85.7782 9.27939 86.0598 8.95466 86.4186 8.70486C86.7774 8.45507 87.1907 8.26659 87.6585 8.13942C88.1263 8.00771 88.6259 7.91915 89.1573 7.87373C89.7522 7.81923 90.2314 7.76246 90.5947 7.70341C90.9581 7.63983 91.2215 7.55127 91.385 7.43772C91.553 7.31964 91.6371 7.15387 91.6371 6.94041V6.90634C91.6371 6.55663 91.5167 6.2864 91.276 6.09565C91.0353 5.9049 90.7105 5.80952 90.3018 5.80952C89.8612 5.80952 89.507 5.9049 89.239 6.09565C88.9711 6.2864 88.8008 6.54982 88.7281 6.88591L85.6556 6.7769C85.7464 6.14106 85.9803 5.57335 86.3573 5.07376C86.7388 4.56963 87.2611 4.1745 87.9242 3.88837C88.5918 3.5977 89.3934 3.45237 90.329 3.45237C90.9967 3.45237 91.6121 3.53185 92.1752 3.69081C92.7384 3.84523 93.2289 4.07231 93.6468 4.37207C94.0646 4.66728 94.3871 5.03061 94.6141 5.46208C94.8458 5.89354 94.9616 6.38632 94.9616 6.94041V14.0527H91.8278V12.5948H91.7461C91.5598 12.9491 91.3214 13.2489 91.0307 13.4941C90.7446 13.7394 90.4062 13.9233 90.0157 14.0459C89.6296 14.1685 89.1936 14.2299 88.7076 14.2299ZM89.7363 12.0498C90.0951 12.0498 90.4176 11.9772 90.7037 11.8318C90.9944 11.6865 91.226 11.4867 91.3986 11.2323C91.5712 10.9735 91.6575 10.6737 91.6575 10.3331V9.33843C91.5621 9.38839 91.4463 9.43381 91.31 9.47468C91.1783 9.51556 91.033 9.55416 90.874 9.5905C90.7151 9.62683 90.5516 9.65862 90.3835 9.68587C90.2155 9.71312 90.0543 9.7381 89.8998 9.76081C89.5865 9.81077 89.3185 9.88798 89.096 9.99244C88.878 10.0969 88.7099 10.2332 88.5918 10.4012C88.4783 10.5647 88.4215 10.76 88.4215 10.9871C88.4215 11.3322 88.5441 11.5957 88.7894 11.7773C89.0392 11.959 89.3548 12.0498 89.7363 12.0498ZM101.12 14.0527V3.58862H104.452V7.48541H105.187L107.728 3.58862H111.584L108.062 8.82749L111.618 14.0527H107.715L105.419 10.5783H104.452V14.0527H101.12ZM117.114 14.2503C116.015 14.2503 115.071 14.0255 114.28 13.5759C113.495 13.1217 112.888 12.4904 112.461 11.682C112.039 10.869 111.828 9.92658 111.828 8.85474C111.828 7.77835 112.039 6.83595 112.461 6.02752C112.888 5.21455 113.495 4.58326 114.28 4.13363C115.071 3.67945 116.015 3.45237 117.114 3.45237C118.213 3.45237 119.156 3.67945 119.942 4.13363C120.732 4.58326 121.338 5.21455 121.761 6.02752C122.187 6.83595 122.401 7.77835 122.401 8.85474C122.401 9.92658 122.187 10.869 121.761 11.682C121.338 12.4904 120.732 13.1217 119.942 13.5759C119.156 14.0255 118.213 14.2503 117.114 14.2503ZM117.135 11.7365C117.534 11.7365 117.873 11.6138 118.15 11.3686C118.427 11.1233 118.638 10.7827 118.783 10.3467C118.933 9.91069 119.008 9.40656 119.008 8.8343C119.008 8.25296 118.933 7.74429 118.783 7.30829C118.638 6.87228 118.427 6.53165 118.15 6.2864C117.873 6.04115 117.534 5.91852 117.135 5.91852C116.722 5.91852 116.372 6.04115 116.086 6.2864C115.804 6.53165 115.588 6.87228 115.438 7.30829C115.293 7.74429 115.22 8.25296 115.22 8.8343C115.22 9.40656 115.293 9.91069 115.438 10.3467C115.588 10.7827 115.804 11.1233 116.086 11.3686C116.372 11.6138 116.722 11.7365 117.135 11.7365ZM131.486 7.51948V10.0606H126.117V7.51948H131.486ZM127.262 3.58862V14.0527H124.107V3.58862H127.262ZM133.495 3.58862V14.0527H130.361V3.58862H133.495ZM140.408 14.2503C139.314 14.2503 138.369 14.0346 137.574 13.6031C136.784 13.1671 136.175 12.5472 135.748 11.7433C135.326 10.9348 135.115 9.97427 135.115 8.86155C135.115 7.78062 135.328 6.83595 135.755 6.02752C136.182 5.21455 136.784 4.58326 137.561 4.13363C138.337 3.67945 139.252 3.45237 140.306 3.45237C141.051 3.45237 141.732 3.56818 142.35 3.79981C142.968 4.03144 143.501 4.37434 143.951 4.82851C144.4 5.28268 144.75 5.84358 145 6.51121C145.25 7.1743 145.375 7.93504 145.375 8.79343V9.62456H136.28V7.68979H142.275C142.27 7.33554 142.186 7.01989 142.023 6.74284C141.859 6.4658 141.635 6.25007 141.348 6.09565C141.067 5.93669 140.742 5.85721 140.374 5.85721C140.002 5.85721 139.668 5.94123 139.373 6.10927C139.078 6.27277 138.844 6.49759 138.671 6.78372C138.498 7.0653 138.408 7.38549 138.399 7.74429V9.71312C138.399 10.14 138.483 10.5147 138.651 10.8372C138.819 11.1551 139.057 11.4026 139.366 11.5798C139.675 11.7569 140.043 11.8455 140.47 11.8455C140.765 11.8455 141.033 11.8046 141.273 11.7228C141.514 11.6411 141.721 11.5207 141.893 11.3618C142.066 11.2028 142.195 11.0075 142.282 10.7759L145.341 10.8644C145.213 11.5502 144.934 12.1475 144.503 12.6562C144.076 13.1603 143.515 13.5531 142.82 13.8347C142.125 14.1118 141.321 14.2503 140.408 14.2503ZM156.525 3.58862V11.8795H158.262V17.4113H155.04V14.0527H147.076V3.58862H150.23V11.5048H153.419V3.58862H156.525ZM170.273 10.4966L172.834 3.58862H175.273L171.342 14.0527H169.203L165.375 3.58862H167.807L170.273 10.4966ZM167.091 3.58862V14.0527H163.937V3.58862H167.091ZM173.645 14.0527V3.58862H176.758V14.0527H173.645ZM183.666 14.2503C182.572 14.2503 181.627 14.0346 180.832 13.6031C180.042 13.1671 179.434 12.5472 179.007 11.7433C178.584 10.9348 178.373 9.97427 178.373 8.86155C178.373 7.78062 178.587 6.83595 179.013 6.02752C179.44 5.21455 180.042 4.58326 180.819 4.13363C181.595 3.67945 182.511 3.45237 183.564 3.45237C184.309 3.45237 184.99 3.56818 185.608 3.79981C186.226 4.03144 186.759 4.37434 187.209 4.82851C187.659 5.28268 188.008 5.84358 188.258 6.51121C188.508 7.1743 188.633 7.93504 188.633 8.79343V9.62456H179.538V7.68979H185.533C185.529 7.33554 185.444 7.01989 185.281 6.74284C185.117 6.4658 184.893 6.25007 184.607 6.09565C184.325 5.93669 184 5.85721 183.632 5.85721C183.26 5.85721 182.926 5.94123 182.631 6.10927C182.336 6.27277 182.102 6.49759 181.929 6.78372C181.757 7.0653 181.666 7.38549 181.657 7.74429V9.71312C181.657 10.14 181.741 10.5147 181.909 10.8372C182.077 11.1551 182.315 11.4026 182.624 11.5798C182.933 11.7569 183.301 11.8455 183.728 11.8455C184.023 11.8455 184.291 11.8046 184.532 11.7228C184.772 11.6411 184.979 11.5207 185.152 11.3618C185.324 11.2028 185.454 11.0075 185.54 10.7759L188.599 10.8644C188.472 11.5502 188.192 12.1475 187.761 12.6562C187.334 13.1603 186.773 13.5531 186.078 13.8347C185.383 14.1118 184.579 14.2503 183.666 14.2503ZM195.219 14.2503C194.115 14.2503 193.168 14.0232 192.378 13.569C191.592 13.1149 190.988 12.4836 190.566 11.6751C190.143 10.8622 189.932 9.92204 189.932 8.85474C189.932 7.78289 190.143 6.84276 190.566 6.03433C190.993 5.22137 191.599 4.5878 192.385 4.13363C193.175 3.67945 194.117 3.45237 195.212 3.45237C196.179 3.45237 197.022 3.62722 197.739 3.97694C198.462 4.32665 199.025 4.8217 199.429 5.46208C199.838 6.09792 200.053 6.84503 200.076 7.70341H196.963C196.899 7.16749 196.718 6.74738 196.418 6.44309C196.123 6.13879 195.737 5.98665 195.26 5.98665C194.874 5.98665 194.535 6.09565 194.245 6.31365C193.954 6.52711 193.727 6.84503 193.563 7.26741C193.404 7.68525 193.325 8.203 193.325 8.82068C193.325 9.43835 193.404 9.96065 193.563 10.3876C193.727 10.8099 193.954 11.1301 194.245 11.3481C194.535 11.5616 194.874 11.6683 195.26 11.6683C195.569 11.6683 195.841 11.6025 196.077 11.4708C196.318 11.3391 196.515 11.146 196.67 10.8917C196.824 10.6328 196.922 10.3194 196.963 9.95156H200.076C200.044 10.8145 199.829 11.5684 199.429 12.2133C199.034 12.8583 198.478 13.3601 197.76 13.7189C197.047 14.0732 196.2 14.2503 195.219 14.2503ZM207.858 14.0527V6.12971H206.168C205.664 6.12971 205.287 6.24552 205.037 6.47715C204.788 6.70878 204.667 6.96311 204.676 7.24016C204.667 7.52629 204.79 7.77835 205.044 7.99636C205.299 8.21436 205.682 8.32336 206.196 8.32336H209.009V10.4353H206.196C205.237 10.4353 204.406 10.2967 203.702 10.0197C203.003 9.7381 202.462 9.34979 202.081 8.85474C201.704 8.35515 201.518 7.78062 201.522 7.13116C201.518 6.43628 201.704 5.82314 202.081 5.29176C202.458 4.75584 202.994 4.338 203.689 4.03825C204.388 3.7385 205.215 3.58862 206.168 3.58862H210.958V14.0527H207.858ZM201.318 14.0527L204.2 8.52092H207.32L204.438 14.0527H201.318ZM222.433 3.58862V11.8795H224.171V17.4113H220.948V14.0527H212.984V3.58862H216.139V11.5048H219.327V3.58862H222.433ZM228.674 14.2299C228.006 14.2299 227.413 14.1186 226.896 13.896C226.382 13.669 225.976 13.3283 225.676 12.8742C225.381 12.4154 225.233 11.8409 225.233 11.1506C225.233 10.5692 225.336 10.0787 225.54 9.67906C225.744 9.27939 226.026 8.95466 226.385 8.70486C226.743 8.45507 227.157 8.26659 227.625 8.13942C228.092 8.00771 228.592 7.91915 229.123 7.87373C229.718 7.81923 230.197 7.76246 230.561 7.70341C230.924 7.63983 231.188 7.55127 231.351 7.43772C231.519 7.31964 231.603 7.15387 231.603 6.94041V6.90634C231.603 6.55663 231.483 6.2864 231.242 6.09565C231.001 5.9049 230.677 5.80952 230.268 5.80952C229.827 5.80952 229.473 5.9049 229.205 6.09565C228.937 6.2864 228.767 6.54982 228.694 6.88591L225.622 6.7769C225.712 6.14106 225.946 5.57335 226.323 5.07376C226.705 4.56963 227.227 4.1745 227.89 3.88837C228.558 3.5977 229.359 3.45237 230.295 3.45237C230.963 3.45237 231.578 3.53185 232.141 3.69081C232.704 3.84523 233.195 4.07231 233.613 4.37207C234.031 4.66728 234.353 5.03061 234.58 5.46208C234.812 5.89354 234.928 6.38632 234.928 6.94041V14.0527H231.794V12.5948H231.712C231.526 12.9491 231.287 13.2489 230.997 13.4941C230.711 13.7394 230.372 13.9233 229.982 14.0459C229.596 14.1685 229.16 14.2299 228.674 14.2299ZM229.702 12.0498C230.061 12.0498 230.384 11.9772 230.67 11.8318C230.96 11.6865 231.192 11.4867 231.365 11.2323C231.537 10.9735 231.624 10.6737 231.624 10.3331V9.33843C231.528 9.38839 231.412 9.43381 231.276 9.47468C231.144 9.51556 230.999 9.55416 230.84 9.5905C230.681 9.62683 230.518 9.65862 230.35 9.68587C230.182 9.71312 230.02 9.7381 229.866 9.76081C229.553 9.81077 229.285 9.88798 229.062 9.99244C228.844 10.0969 228.676 10.2332 228.558 10.4012C228.444 10.5647 228.388 10.76 228.388 10.9871C228.388 11.3322 228.51 11.5957 228.755 11.7773C229.005 11.959 229.321 12.0498 229.702 12.0498Z" fill="#4E5D7C"/>
<path d="M48.7108 225.329H1058.01V226.395H48.7108V225.329Z" fill="#4E5D7C" fill-opacity="0.32"/>
<path d="M48.7108 173.105H1058.01V174.171H48.7108V173.105Z" fill="#4E5D7C" fill-opacity="0.08"/>
<path d="M48.7108 329.776H1058.01V330.842H48.7108V329.776Z" fill="#4E5D7C" fill-opacity="0.08"/>
<path d="M48.7108 120.882H1058.01V121.947H48.7108V120.882Z" fill="#4E5D7C" fill-opacity="0.08"/>
<path d="M48.7108 277.553H1058.01V278.619H48.7108V277.553Z" fill="#4E5D7C" fill-opacity="0.08"/>
<path d="M98.8632 375.685H97.3379V366.912H95.4289C94.9303 366.912 94.5252 366.987 94.2136 367.138C93.902 367.286 93.674 367.499 93.5297 367.778C93.3853 368.057 93.3132 368.386 93.3132 368.767C93.3132 369.144 93.3853 369.467 93.5297 369.736C93.674 370.005 93.9003 370.21 94.2087 370.351C94.517 370.492 94.9188 370.563 95.4141 370.563H97.9972V371.871H95.2714C94.494 371.871 93.8462 371.742 93.3279 371.483C92.813 371.224 92.4259 370.861 92.1668 370.395C91.9109 369.926 91.783 369.383 91.783 368.767C91.783 368.147 91.9109 367.601 92.1668 367.128C92.4226 366.653 92.808 366.28 93.323 366.011C93.8413 365.743 94.4891 365.608 95.2665 365.608H98.8632V375.685ZM93.8888 371.138H95.5715L93.1262 375.685H91.3992L93.8888 371.138ZM106.086 371.271V372.545H101.992V371.271H106.086ZM102.406 368.127V375.685H100.964V368.127H102.406ZM107.114 368.127V375.685H105.678V368.127H107.114ZM109.082 375.685V368.127H112.217C113.069 368.127 113.745 368.309 114.244 368.673C114.742 369.034 114.992 369.524 114.992 370.144C114.992 370.587 114.851 370.938 114.568 371.197C114.286 371.456 113.912 371.63 113.447 371.719C113.784 371.758 114.094 371.86 114.377 372.024C114.659 372.185 114.885 372.401 115.056 372.673C115.229 372.946 115.316 373.27 115.316 373.648C115.316 374.048 115.213 374.402 115.006 374.71C114.8 375.015 114.5 375.255 114.106 375.429C113.716 375.599 113.245 375.685 112.694 375.685H109.082ZM110.465 374.455H112.694C113.058 374.455 113.343 374.368 113.55 374.194C113.757 374.02 113.86 373.784 113.86 373.485C113.86 373.134 113.757 372.859 113.55 372.659C113.343 372.455 113.058 372.354 112.694 372.354H110.465V374.455ZM110.465 371.276H112.231C112.507 371.276 112.743 371.237 112.94 371.158C113.14 371.079 113.292 370.968 113.397 370.823C113.506 370.676 113.56 370.502 113.56 370.302C113.56 370.01 113.44 369.782 113.201 369.618C112.961 369.454 112.633 369.372 112.217 369.372H110.465V371.276Z" fill="#4E5D7C" fill-opacity="0.5"/>
<path d="M81.7502 123.014C81.7502 118.305 85.5676 114.487 90.2766 114.487H115.856C120.564 114.487 124.382 118.305 124.382 123.014V225.329H81.7502V123.014Z" fill="#27AE60"/>
<path d="M35.126 229.838C34.3487 229.835 33.6844 229.63 33.1334 229.223C32.5823 228.817 32.1608 228.225 31.8689 227.447C31.5769 226.67 31.431 225.733 31.431 224.638C31.431 223.546 31.5769 222.612 31.8689 221.838C32.1641 221.064 32.5872 220.474 33.1383 220.067C33.6926 219.66 34.3552 219.457 35.126 219.457C35.8969 219.457 36.5578 219.662 37.1089 220.072C37.6599 220.479 38.0814 221.069 38.3734 221.843C38.6686 222.614 38.8162 223.546 38.8162 224.638C38.8162 225.737 38.6702 226.675 38.3783 227.452C38.0864 228.226 37.6649 228.818 37.1138 229.228C36.5627 229.635 35.9002 229.838 35.126 229.838ZM35.126 228.525C35.8083 228.525 36.3413 228.192 36.7251 227.526C37.1122 226.86 37.3057 225.897 37.3057 224.638C37.3057 223.801 37.2171 223.094 37.04 222.517C36.8661 221.937 36.6152 221.497 36.2872 221.199C35.9625 220.897 35.5754 220.746 35.126 220.746C34.4471 220.746 33.914 221.08 33.527 221.75C33.1399 222.419 32.9448 223.381 32.9415 224.638C32.9415 225.477 33.0284 226.188 33.2022 226.768C33.3794 227.346 33.6303 227.783 33.955 228.082C34.2798 228.377 34.6701 228.525 35.126 228.525Z" fill="#4E5D7C" fill-opacity="0.5"/>
<path d="M18.3558 176.519C17.7391 176.519 17.1848 176.401 16.6928 176.165C16.204 175.926 15.8137 175.598 15.5218 175.181C15.2298 174.764 15.074 174.289 15.0543 173.754H16.5304C16.5665 174.187 16.7584 174.543 17.1061 174.822C17.4537 175.101 17.8703 175.24 18.3558 175.24C18.7428 175.24 19.0856 175.152 19.3841 174.974C19.6859 174.794 19.922 174.546 20.0926 174.231C20.2665 173.917 20.3534 173.557 20.3534 173.154C20.3534 172.744 20.2648 172.378 20.0877 172.057C19.9106 171.735 19.6662 171.483 19.3546 171.299C19.0463 171.115 18.692 171.022 18.2918 171.019C17.9868 171.019 17.6801 171.071 17.3717 171.176C17.0634 171.281 16.8141 171.419 16.6239 171.589L15.2315 171.383L15.7973 166.305H21.3374V167.609H17.0618L16.742 170.428H16.801C16.9978 170.238 17.2586 170.079 17.5833 169.951C17.9113 169.823 18.2623 169.759 18.6362 169.759C19.2496 169.759 19.7958 169.905 20.2747 170.197C20.7568 170.489 21.1357 170.887 21.4112 171.393C21.69 171.894 21.8278 172.472 21.8245 173.124C21.8278 173.777 21.6802 174.359 21.3817 174.871C21.0865 175.383 20.6765 175.786 20.1517 176.081C19.6301 176.373 19.0315 176.519 18.3558 176.519ZM27.1297 176.549C26.3523 176.546 25.6881 176.341 25.137 175.934C24.586 175.527 24.1645 174.935 23.8725 174.158C23.5806 173.38 23.4347 172.444 23.4347 171.348C23.4347 170.256 23.5806 169.323 23.8725 168.549C24.1678 167.775 24.5909 167.184 25.142 166.777C25.6963 166.371 26.3589 166.167 27.1297 166.167C27.9005 166.167 28.5615 166.372 29.1126 166.782C29.6636 167.189 30.0851 167.779 30.377 168.554C30.6723 169.324 30.8199 170.256 30.8199 171.348C30.8199 172.447 30.6739 173.385 30.382 174.163C30.09 174.937 29.6685 175.529 29.1175 175.939C28.5664 176.346 27.9038 176.549 27.1297 176.549ZM27.1297 175.235C27.812 175.235 28.345 174.902 28.7288 174.236C29.1158 173.571 29.3094 172.608 29.3094 171.348C29.3094 170.512 29.2208 169.805 29.0437 169.228C28.8698 168.647 28.6189 168.208 28.2909 167.909C27.9662 167.607 27.5791 167.456 27.1297 167.456C26.4507 167.456 25.9177 167.791 25.5307 168.46C25.1436 169.129 24.9484 170.092 24.9452 171.348C24.9452 172.188 25.0321 172.898 25.2059 173.479C25.383 174.056 25.634 174.494 25.9587 174.792C26.2834 175.088 26.6738 175.235 27.1297 175.235ZM36.0734 176.549C35.296 176.546 34.6318 176.341 34.0807 175.934C33.5297 175.527 33.1082 174.935 32.8162 174.158C32.5243 173.38 32.3783 172.444 32.3783 171.348C32.3783 170.256 32.5243 169.323 32.8162 168.549C33.1114 167.775 33.5346 167.184 34.0856 166.777C34.64 166.371 35.3026 166.167 36.0734 166.167C36.8442 166.167 37.5052 166.372 38.0562 166.782C38.6073 167.189 39.0288 167.779 39.3207 168.554C39.6159 169.324 39.7635 170.256 39.7635 171.348C39.7635 172.447 39.6176 173.385 39.3256 174.163C39.0337 174.937 38.6122 175.529 38.0612 175.939C37.5101 176.346 36.8475 176.549 36.0734 176.549ZM36.0734 175.235C36.7557 175.235 37.2887 174.902 37.6725 174.236C38.0595 173.571 38.253 172.608 38.253 171.348C38.253 170.512 38.1645 169.805 37.9874 169.228C37.8135 168.647 37.5626 168.208 37.2346 167.909C36.9098 167.607 36.5228 167.456 36.0734 167.456C35.3944 167.456 34.8614 167.791 34.4743 168.46C34.0873 169.129 33.8921 170.092 33.8888 171.348C33.8888 172.188 33.9758 172.898 34.1496 173.479C34.3267 174.056 34.5777 174.494 34.9024 174.792C35.2271 175.088 35.6175 175.235 36.0734 175.235Z" fill="#4E5D7C" fill-opacity="0.5"/>
<path d="M12.694 277.283V278.562H8.22647V277.283H12.694ZM17.9611 283.098C17.3444 283.098 16.7901 282.98 16.298 282.744C15.8093 282.505 15.419 282.176 15.127 281.76C14.8351 281.343 14.6793 280.868 14.6596 280.333H16.1357C16.1718 280.766 16.3636 281.122 16.7113 281.401C17.059 281.68 17.4756 281.819 17.9611 281.819C18.3481 281.819 18.6909 281.73 18.9894 281.553C19.2912 281.373 19.5273 281.125 19.6979 280.81C19.8717 280.495 19.9587 280.136 19.9587 279.733C19.9587 279.323 19.8701 278.957 19.693 278.636C19.5159 278.314 19.2715 278.062 18.9599 277.878C18.6515 277.694 18.2973 277.601 17.8971 277.597C17.5921 277.597 17.2854 277.65 16.977 277.755C16.6687 277.86 16.4194 277.998 16.2292 278.168L14.8367 277.962L15.4026 272.884H20.9427V274.188H16.6671L16.3472 277.007H16.4063C16.6031 276.817 16.8639 276.658 17.1886 276.53C17.5166 276.402 17.8676 276.338 18.2415 276.338C18.8549 276.338 19.401 276.484 19.8799 276.776C20.3621 277.068 20.741 277.466 21.0165 277.971C21.2953 278.473 21.4331 279.051 21.4298 279.703C21.4331 280.356 21.2855 280.938 20.987 281.45C20.6918 281.962 20.2818 282.365 19.7569 282.66C19.2354 282.952 18.6368 283.098 17.9611 283.098ZM26.735 283.128C25.9576 283.124 25.2934 282.919 24.7423 282.513C24.1913 282.106 23.7698 281.514 23.4778 280.737C23.1859 279.959 23.0399 279.023 23.0399 277.927C23.0399 276.835 23.1859 275.902 23.4778 275.128C23.773 274.353 24.1962 273.763 24.7472 273.356C25.3016 272.949 25.9642 272.746 26.735 272.746C27.5058 272.746 28.1668 272.951 28.7178 273.361C29.2689 273.768 29.6904 274.358 29.9823 275.132C30.2775 275.903 30.4251 276.835 30.4251 277.927C30.4251 279.026 30.2792 279.964 29.9873 280.741C29.6953 281.516 29.2738 282.108 28.7228 282.518C28.1717 282.924 27.5091 283.128 26.735 283.128ZM26.735 281.814C27.4173 281.814 27.9503 281.481 28.3341 280.815C28.7211 280.149 28.9146 279.187 28.9146 277.927C28.9146 277.091 28.8261 276.384 28.649 275.806C28.4751 275.226 28.2242 274.786 27.8962 274.488C27.5714 274.186 27.1844 274.035 26.735 274.035C26.056 274.035 25.523 274.37 25.1359 275.039C24.7489 275.708 24.5537 276.671 24.5504 277.927C24.5504 278.767 24.6374 279.477 24.8112 280.058C24.9883 280.635 25.2393 281.073 25.564 281.371C25.8887 281.666 26.2791 281.814 26.735 281.814ZM35.6787 283.128C34.9013 283.124 34.2371 282.919 33.686 282.513C33.1349 282.106 32.7134 281.514 32.4215 280.737C32.1296 279.959 31.9836 279.023 31.9836 277.927C31.9836 276.835 32.1296 275.902 32.4215 275.128C32.7167 274.353 33.1399 273.763 33.6909 273.356C34.2453 272.949 34.9079 272.746 35.6787 272.746C36.4495 272.746 37.1105 272.951 37.6615 273.361C38.2126 273.768 38.6341 274.358 38.926 275.132C39.2212 275.903 39.3688 276.835 39.3688 277.927C39.3688 279.026 39.2229 279.964 38.9309 280.741C38.639 281.516 38.2175 282.108 37.6664 282.518C37.1154 282.924 36.4528 283.128 35.6787 283.128ZM35.6787 281.814C36.361 281.814 36.894 281.481 37.2777 280.815C37.6648 280.149 37.8583 279.187 37.8583 277.927C37.8583 277.091 37.7698 276.384 37.5926 275.806C37.4188 275.226 37.1679 274.786 36.8399 274.488C36.5151 274.186 36.1281 274.035 35.6787 274.035C34.9997 274.035 34.4667 274.37 34.0796 275.039C33.6926 275.708 33.4974 276.671 33.4941 277.927C33.4941 278.767 33.581 279.477 33.7549 280.058C33.932 280.635 34.1829 281.073 34.5077 281.371C34.8324 281.666 35.2227 281.814 35.6787 281.814Z" fill="#4E5D7C" fill-opacity="0.5"/>
<path d="M5.33289 330.572V331.851H0.865357V330.572H5.33289ZM11.0969 326.173V336.25H9.57164V327.699H9.5126L7.1017 329.273V327.817L9.61592 326.173H11.0969ZM17.3308 336.417C16.5534 336.414 15.8892 336.209 15.3381 335.802C14.787 335.396 14.3655 334.803 14.0736 334.026C13.7817 333.249 13.6357 332.312 13.6357 331.217C13.6357 330.124 13.7817 329.191 14.0736 328.417C14.3688 327.643 14.792 327.053 15.343 326.646C15.8974 326.239 16.56 326.036 17.3308 326.036C18.1016 326.036 18.7626 326.241 19.3136 326.651C19.8647 327.057 20.2862 327.648 20.5781 328.422C20.8733 329.193 21.0209 330.124 21.0209 331.217C21.0209 332.315 20.875 333.254 20.583 334.031C20.2911 334.805 19.8696 335.397 19.3185 335.807C18.7675 336.214 18.1049 336.417 17.3308 336.417ZM17.3308 335.104C18.013 335.104 18.5461 334.771 18.9298 334.105C19.3169 333.439 19.5104 332.476 19.5104 331.217C19.5104 330.38 19.4219 329.673 19.2447 329.096C19.0709 328.515 18.82 328.076 18.4919 327.777C18.1672 327.476 17.7802 327.325 17.3308 327.325C16.6518 327.325 16.1188 327.659 15.7317 328.328C15.3447 328.998 15.1495 329.96 15.1462 331.217C15.1462 332.056 15.2331 332.767 15.407 333.347C15.5841 333.924 15.835 334.362 16.1598 334.661C16.4845 334.956 16.8748 335.104 17.3308 335.104ZM26.2745 336.417C25.4971 336.414 24.8328 336.209 24.2818 335.802C23.7307 335.396 23.3092 334.803 23.0173 334.026C22.7254 333.249 22.5794 332.312 22.5794 331.217C22.5794 330.124 22.7254 329.191 23.0173 328.417C23.3125 327.643 23.7356 327.053 24.2867 326.646C24.841 326.239 25.5036 326.036 26.2745 326.036C27.0453 326.036 27.7062 326.241 28.2573 326.651C28.8084 327.057 29.2299 327.648 29.5218 328.422C29.817 329.193 29.9646 330.124 29.9646 331.217C29.9646 332.315 29.8186 333.254 29.5267 334.031C29.2348 334.805 28.8133 335.397 28.2622 335.807C27.7112 336.214 27.0486 336.417 26.2745 336.417ZM26.2745 335.104C26.9567 335.104 27.4898 334.771 27.8735 334.105C28.2606 333.439 28.4541 332.476 28.4541 331.217C28.4541 330.38 28.3655 329.673 28.1884 329.096C28.0146 328.515 27.7636 328.076 27.4356 327.777C27.1109 327.476 26.7238 327.325 26.2745 327.325C25.5955 327.325 25.0625 327.659 24.6754 328.328C24.2883 328.998 24.0932 329.96 24.0899 331.217C24.0899 332.056 24.1768 332.767 24.3507 333.347C24.5278 333.924 24.7787 334.362 25.1035 334.661C25.4282 334.956 25.8185 335.104 26.2745 335.104ZM35.2181 336.417C34.4408 336.414 33.7765 336.209 33.2255 335.802C32.6744 335.396 32.2529 334.803 31.961 334.026C31.669 333.249 31.5231 332.312 31.5231 331.217C31.5231 330.124 31.669 329.191 31.961 328.417C32.2562 327.643 32.6793 327.053 33.2304 326.646C33.7847 326.239 34.4473 326.036 35.2181 326.036C35.989 326.036 36.6499 326.241 37.201 326.651C37.752 327.057 38.1735 327.648 38.4655 328.422C38.7607 329.193 38.9083 330.124 38.9083 331.217C38.9083 332.315 38.7623 333.254 38.4704 334.031C38.1785 334.805 37.757 335.397 37.2059 335.807C36.6548 336.214 35.9923 336.417 35.2181 336.417ZM35.2181 335.104C35.9004 335.104 36.4334 334.771 36.8172 334.105C37.2043 333.439 37.3978 332.476 37.3978 331.217C37.3978 330.38 37.3092 329.673 37.1321 329.096C36.9583 328.515 36.7073 328.076 36.3793 327.777C36.0546 327.476 35.6675 327.325 35.2181 327.325C34.5392 327.325 34.0061 327.659 33.6191 328.328C33.232 328.998 33.0369 329.96 33.0336 331.217C33.0336 332.056 33.1205 332.767 33.2943 333.347C33.4715 333.924 33.7224 334.362 34.0471 334.661C34.3719 334.956 34.7622 335.104 35.2181 335.104Z" fill="#4E5D7C" fill-opacity="0.5"/>
<path d="M11.4916 113.015V123.092H9.96638V114.541H9.90734L7.49645 116.115V114.659L10.0107 113.015H11.4916ZM17.7255 123.259C16.9481 123.256 16.2839 123.051 15.7328 122.644C15.1818 122.238 14.7603 121.646 14.4684 120.868C14.1764 120.091 14.0305 119.154 14.0305 118.059C14.0305 116.966 14.1764 116.033 14.4684 115.259C14.7636 114.485 15.1867 113.895 15.7378 113.488C16.2921 113.081 16.9547 112.878 17.7255 112.878C18.4964 112.878 19.1573 113.083 19.7084 113.493C20.2594 113.899 20.6809 114.49 20.9729 115.264C21.2681 116.035 21.4157 116.966 21.4157 118.059C21.4157 119.158 21.2697 120.096 20.9778 120.873C20.6858 121.647 20.2643 122.239 19.7133 122.649C19.1622 123.056 18.4996 123.259 17.7255 123.259ZM17.7255 121.946C18.4078 121.946 18.9408 121.613 19.3246 120.947C19.7116 120.281 19.9052 119.318 19.9052 118.059C19.9052 117.222 19.8166 116.515 19.6395 115.938C19.4656 115.357 19.2147 114.918 18.8867 114.619C18.562 114.318 18.1749 114.167 17.7255 114.167C17.0465 114.167 16.5135 114.501 16.1265 115.171C15.7394 115.84 15.5442 116.802 15.541 118.059C15.541 118.898 15.6279 119.609 15.8017 120.189C15.9789 120.766 16.2298 121.204 16.5545 121.503C16.8793 121.798 17.2696 121.946 17.7255 121.946ZM26.6692 123.259C25.8918 123.256 25.2276 123.051 24.6765 122.644C24.1255 122.238 23.704 121.646 23.412 120.868C23.1201 120.091 22.9741 119.154 22.9741 118.059C22.9741 116.966 23.1201 116.033 23.412 115.259C23.7073 114.485 24.1304 113.895 24.6815 113.488C25.2358 113.081 25.8984 112.878 26.6692 112.878C27.44 112.878 28.101 113.083 28.652 113.493C29.2031 113.899 29.6246 114.49 29.9165 115.264C30.2117 116.035 30.3594 116.966 30.3594 118.059C30.3594 119.158 30.2134 120.096 29.9215 120.873C29.6295 121.647 29.208 122.239 28.657 122.649C28.1059 123.056 27.4433 123.259 26.6692 123.259ZM26.6692 121.946C27.3515 121.946 27.8845 121.613 28.2683 120.947C28.6553 120.281 28.8489 119.318 28.8489 118.059C28.8489 117.222 28.7603 116.515 28.5832 115.938C28.4093 115.357 28.1584 114.918 27.8304 114.619C27.5056 114.318 27.1186 114.167 26.6692 114.167C25.9902 114.167 25.4572 114.501 25.0701 115.171C24.6831 115.84 24.4879 116.802 24.4846 118.059C24.4846 118.898 24.5716 119.609 24.7454 120.189C24.9225 120.766 25.1735 121.204 25.4982 121.503C25.8229 121.798 26.2133 121.946 26.6692 121.946ZM35.6129 123.259C34.8355 123.256 34.1713 123.051 33.6202 122.644C33.0691 122.238 32.6477 121.646 32.3557 120.868C32.0638 120.091 31.9178 119.154 31.9178 118.059C31.9178 116.966 32.0638 116.033 32.3557 115.259C32.6509 114.485 33.0741 113.895 33.6251 113.488C34.1795 113.081 34.8421 112.878 35.6129 112.878C36.3837 112.878 37.0447 113.083 37.5957 113.493C38.1468 113.899 38.5683 114.49 38.8602 115.264C39.1554 116.035 39.303 116.966 39.303 118.059C39.303 119.158 39.1571 120.096 38.8651 120.873C38.5732 121.647 38.1517 122.239 37.6006 122.649C37.0496 123.056 36.387 123.259 35.6129 123.259ZM35.6129 121.946C36.2952 121.946 36.8282 121.613 37.212 120.947C37.599 120.281 37.7925 119.318 37.7925 118.059C37.7925 117.222 37.704 116.515 37.5268 115.938C37.353 115.357 37.1021 114.918 36.7741 114.619C36.4493 114.318 36.0623 114.167 35.6129 114.167C34.9339 114.167 34.4009 114.501 34.0138 115.171C33.6268 115.84 33.4316 116.802 33.4283 118.059C33.4283 118.898 33.5152 119.609 33.6891 120.189C33.8662 120.766 34.1172 121.204 34.4419 121.503C34.7666 121.798 35.157 121.946 35.6129 121.946Z" fill="#4E5D7C" fill-opacity="0.5"/>
<path d="M0.520238 63.5147V62.2453H6.89681V63.5147H4.43179V69.8027H2.9951V63.5147H0.520238ZM9.55986 64.8432H11.7543C12.6793 64.8432 13.3911 65.0728 13.8896 65.532C14.3882 65.9912 14.6375 66.5833 14.6375 67.3082C14.6375 67.7805 14.526 68.2053 14.3029 68.5825C14.0799 68.9597 13.7535 69.2582 13.3238 69.478C12.8941 69.6945 12.3709 69.8027 11.7543 69.8027H8.45282V62.2453H9.89444V68.5333H11.7543C12.1774 68.5333 12.5251 68.4234 12.7973 68.2037C13.0696 67.9806 13.2057 67.6969 13.2057 67.3525C13.2057 66.9884 13.0696 66.6915 12.7973 66.4619C12.5251 66.229 12.1774 66.1126 11.7543 66.1126H9.55986V64.8432ZM15.7101 69.8027V62.2453H17.1812V69.8027H15.7101ZM22.3388 69.9553C21.6074 69.9553 20.9776 69.7896 20.4495 69.4583C19.9247 69.1237 19.5212 68.6629 19.2391 68.0757C18.957 67.4886 18.816 66.8162 18.816 66.0585C18.816 65.2909 18.9603 64.6136 19.249 64.0264C19.5376 63.436 19.9443 62.9751 20.4692 62.6439C20.994 62.3126 21.6123 62.1469 22.3241 62.1469C22.8981 62.1469 23.4098 62.2535 23.8592 62.4667C24.3086 62.6767 24.671 62.9719 24.9465 63.3524C25.2253 63.7329 25.391 64.1773 25.4435 64.6857H24.0117C23.933 64.3315 23.7526 64.0264 23.4705 63.7706C23.1917 63.5147 22.8177 63.3868 22.3487 63.3868C21.9387 63.3868 21.5795 63.495 21.2712 63.7115C20.9661 63.9247 20.7283 64.2298 20.5577 64.6267C20.3872 65.0203 20.3019 65.4861 20.3019 66.024C20.3019 66.5751 20.3855 67.0507 20.5528 67.4509C20.7201 67.8511 20.9563 68.161 21.2613 68.3808C21.5696 68.6006 21.9321 68.7105 22.3487 68.7105C22.6275 68.7105 22.8801 68.6596 23.1064 68.5579C23.336 68.453 23.5279 68.3037 23.682 68.1102C23.8395 67.9167 23.9494 67.6838 24.0117 67.4115H25.4435C25.391 67.9003 25.2319 68.3365 24.9662 68.7203C24.7005 69.1041 24.3446 69.4058 23.8985 69.6256C23.4557 69.8454 22.9358 69.9553 22.3388 69.9553ZM28.9307 68.4251L28.8569 68.9614C28.8077 69.355 28.724 69.765 28.6059 70.1914C28.4911 70.6211 28.3714 71.0197 28.2468 71.387C28.1254 71.7544 28.0253 72.0463 27.9466 72.2628H26.9035C26.9462 72.0595 27.0052 71.7839 27.0807 71.4362C27.1561 71.0918 27.2299 70.7064 27.3021 70.28C27.3742 69.8536 27.4284 69.419 27.4644 68.9761L27.5136 68.4251H28.9307ZM39.2803 65.8567H34.0796V64.5676H39.2606C39.7067 64.5676 40.0757 64.4938 40.3676 64.3462C40.6596 64.1954 40.8761 63.9887 41.0171 63.7263C41.1582 63.4606 41.2287 63.1556 41.2287 62.8111C41.2287 62.47 41.1582 62.165 41.0171 61.896C40.8761 61.627 40.6612 61.4154 40.3726 61.2613C40.0839 61.1038 39.7198 61.0251 39.2803 61.0251H37.1351V69.8027H35.6197V59.7262H39.2803C40.0446 59.7262 40.6825 59.8639 41.1942 60.1395C41.7092 60.415 42.0946 60.7857 42.3505 61.2514C42.6096 61.7172 42.7392 62.2355 42.7392 62.8062C42.7392 63.3835 42.608 63.9034 42.3456 64.3659C42.0864 64.8251 41.6994 65.1892 41.1844 65.4582C40.6727 65.7239 40.038 65.8567 39.2803 65.8567ZM39.3541 66.703V67.997H34.0796V66.703H39.3541Z" fill="#4E5D7C" fill-opacity="0.5"/>
<path d="M399.49 375.684H397.876L401.502 365.607H403.259L406.885 375.684H405.271L402.422 367.438H402.344L399.49 375.684ZM399.761 371.738H404.996V373.017H399.761V371.738ZM408.222 375.684V368.126H414.387V375.684H412.945V369.396H409.654V375.684H408.222ZM416.354 378.518V368.126H417.791V369.352H417.914C417.999 369.194 418.122 369.012 418.283 368.805C418.443 368.599 418.666 368.418 418.952 368.264C419.237 368.107 419.614 368.028 420.083 368.028C420.694 368.028 421.238 368.182 421.717 368.491C422.196 368.799 422.571 369.243 422.844 369.824C423.119 370.404 423.257 371.103 423.257 371.92C423.257 372.737 423.121 373.437 422.849 374.021C422.576 374.601 422.202 375.049 421.727 375.364C421.251 375.676 420.708 375.831 420.098 375.831C419.639 375.831 419.263 375.754 418.971 375.6C418.683 375.446 418.456 375.266 418.292 375.059C418.128 374.852 418.002 374.669 417.914 374.508H417.825V378.518H416.354ZM417.796 371.905C417.796 372.437 417.873 372.902 418.027 373.302C418.181 373.703 418.404 374.016 418.696 374.242C418.988 374.465 419.345 374.577 419.769 374.577C420.208 374.577 420.575 374.46 420.871 374.227C421.166 373.991 421.389 373.671 421.54 373.268C421.694 372.865 421.771 372.41 421.771 371.905C421.771 371.407 421.696 370.959 421.545 370.562C421.397 370.165 421.174 369.852 420.876 369.622C420.58 369.393 420.211 369.278 419.769 369.278C419.342 369.278 418.981 369.388 418.686 369.607C418.394 369.827 418.173 370.134 418.022 370.527C417.871 370.921 417.796 371.38 417.796 371.905Z" fill="#4E5D7C" fill-opacity="0.5"/>
<path d="M483.553 226.395H526.184V303.132C526.184 307.841 522.367 311.658 517.658 311.658H492.079C487.37 311.658 483.553 307.841 483.553 303.132V226.395Z" fill="#E74C3C"/>
<path d="M196.631 366.768H198.446C199.214 366.768 199.894 366.937 200.488 367.275C201.085 367.61 201.553 368.08 201.89 368.687C202.232 369.291 202.402 369.993 202.402 370.793C202.402 371.587 202.232 372.284 201.89 372.884C201.553 373.485 201.085 373.954 200.488 374.291C199.894 374.626 199.214 374.793 198.446 374.793H196.631C195.863 374.793 195.181 374.628 194.584 374.296C193.987 373.962 193.518 373.496 193.177 372.899C192.839 372.302 192.67 371.605 192.67 370.808C192.67 370.004 192.841 369.299 193.182 368.692C193.523 368.085 193.99 367.613 194.584 367.275C195.181 366.937 195.863 366.768 196.631 366.768ZM196.631 368.082C196.106 368.082 195.658 368.192 195.288 368.412C194.917 368.628 194.633 368.94 194.436 369.347C194.24 369.753 194.141 370.24 194.141 370.808C194.141 371.362 194.24 371.84 194.436 372.24C194.636 372.637 194.922 372.943 195.292 373.16C195.663 373.373 196.109 373.48 196.631 373.48H198.451C198.973 373.48 199.417 373.373 199.785 373.16C200.155 372.943 200.437 372.635 200.631 372.235C200.828 371.831 200.926 371.351 200.926 370.793C200.926 370.232 200.828 369.75 200.631 369.347C200.437 368.94 200.155 368.628 199.785 368.412C199.417 368.192 198.973 368.082 198.451 368.082H196.631ZM198.289 365.43V376.097H196.798V365.43H198.289ZM207.432 375.836C206.687 375.836 206.046 375.677 205.508 375.359C204.973 375.038 204.56 374.587 204.268 374.006C203.979 373.422 203.835 372.738 203.835 371.954C203.835 371.18 203.979 370.498 204.268 369.908C204.56 369.317 204.967 368.856 205.488 368.525C206.013 368.194 206.627 368.028 207.328 368.028C207.755 368.028 208.168 368.099 208.568 368.24C208.969 368.381 209.328 368.602 209.646 368.904C209.964 369.206 210.215 369.598 210.399 370.08C210.582 370.559 210.674 371.141 210.674 371.826V372.348H204.667V371.246H209.233C209.233 370.859 209.154 370.516 208.996 370.218C208.839 369.916 208.618 369.678 208.332 369.504C208.05 369.33 207.719 369.243 207.338 369.243C206.925 369.243 206.564 369.345 206.256 369.548C205.951 369.748 205.715 370.011 205.547 370.336C205.383 370.657 205.301 371.006 205.301 371.384V372.245C205.301 372.75 205.39 373.179 205.567 373.534C205.747 373.888 205.998 374.159 206.32 374.346C206.641 374.529 207.017 374.621 207.447 374.621C207.725 374.621 207.98 374.582 208.209 374.503C208.439 374.421 208.637 374.3 208.805 374.139C208.972 373.978 209.1 373.78 209.188 373.544L210.581 373.794C210.469 374.204 210.269 374.564 209.98 374.872C209.695 375.177 209.336 375.415 208.903 375.585C208.473 375.753 207.983 375.836 207.432 375.836ZM212.306 375.684V368.126H215.441C216.293 368.126 216.969 368.308 217.468 368.673C217.966 369.033 218.216 369.524 218.216 370.144C218.216 370.587 218.075 370.937 217.792 371.197C217.51 371.456 217.136 371.63 216.671 371.718C217.009 371.758 217.319 371.859 217.601 372.023C217.883 372.184 218.109 372.4 218.28 372.673C218.453 372.945 218.54 373.27 218.54 373.647C218.54 374.047 218.437 374.401 218.23 374.71C218.024 375.015 217.724 375.254 217.33 375.428C216.94 375.599 216.469 375.684 215.918 375.684H212.306ZM213.689 374.454H215.918C216.282 374.454 216.567 374.367 216.774 374.193C216.981 374.019 217.084 373.783 217.084 373.485C217.084 373.134 216.981 372.858 216.774 372.658C216.567 372.455 216.282 372.353 215.918 372.353H213.689V374.454ZM213.689 371.275H215.455C215.731 371.275 215.967 371.236 216.164 371.157C216.364 371.079 216.517 370.967 216.621 370.823C216.73 370.675 216.784 370.501 216.784 370.301C216.784 370.009 216.664 369.781 216.425 369.617C216.185 369.453 215.857 369.371 215.441 369.371H213.689V371.275Z" fill="#4E5D7C" fill-opacity="0.5"/>
<path d="M184.066 172.039C184.066 167.33 187.883 163.513 192.592 163.513H218.171C222.88 163.513 226.697 167.33 226.697 172.039V225.328H184.066V172.039Z" fill="#27AE60"/>
<path d="M499.752 365.607H501.597L504.805 373.44H504.923L508.131 365.607H509.976V375.684H508.53V368.392H508.436L505.465 375.669H504.264L501.292 368.387H501.199V375.684H499.752V365.607ZM514.268 375.851C513.789 375.851 513.356 375.763 512.969 375.585C512.582 375.405 512.275 375.144 512.049 374.803C511.826 374.462 511.714 374.044 511.714 373.548C511.714 373.122 511.796 372.771 511.96 372.496C512.124 372.22 512.346 372.002 512.625 371.841C512.903 371.68 513.215 371.559 513.56 371.477C513.904 371.395 514.255 371.333 514.612 371.29C515.065 371.238 515.432 371.195 515.715 371.162C515.997 371.126 516.202 371.069 516.33 370.99C516.457 370.911 516.521 370.783 516.521 370.606V370.572C516.521 370.142 516.4 369.809 516.157 369.573C515.918 369.337 515.56 369.219 515.085 369.219C514.589 369.219 514.199 369.329 513.914 369.548C513.632 369.765 513.436 370.006 513.328 370.272L511.946 369.957C512.11 369.498 512.349 369.127 512.664 368.845C512.982 368.559 513.348 368.353 513.761 368.225C514.175 368.094 514.609 368.028 515.065 368.028C515.367 368.028 515.687 368.064 516.025 368.136C516.366 368.205 516.684 368.333 516.979 368.52C517.278 368.707 517.522 368.974 517.712 369.322C517.902 369.666 517.998 370.114 517.998 370.665V375.684H516.561V374.651H516.502C516.407 374.841 516.264 375.028 516.074 375.211C515.883 375.395 515.639 375.548 515.341 375.669C515.042 375.79 514.685 375.851 514.268 375.851ZM514.588 374.67C514.995 374.67 515.342 374.59 515.631 374.429C515.923 374.268 516.144 374.059 516.295 373.799C516.449 373.537 516.526 373.257 516.526 372.958V371.984C516.474 372.036 516.372 372.086 516.221 372.131C516.074 372.174 515.905 372.212 515.715 372.245C515.524 372.274 515.339 372.302 515.159 372.328C514.978 372.351 514.827 372.371 514.706 372.387C514.421 372.423 514.16 372.484 513.924 372.569C513.691 372.655 513.504 372.778 513.363 372.938C513.225 373.096 513.156 373.306 513.156 373.568C513.156 373.932 513.291 374.208 513.56 374.395C513.828 374.578 514.171 374.67 514.588 374.67ZM521.399 373.622L524.73 368.126H526.314V375.684H524.872V370.183L521.556 375.684H519.957V368.126H521.399V373.622ZM524.1 365.568H525.31C525.31 366.122 525.113 366.573 524.72 366.921C524.329 367.265 523.801 367.438 523.135 367.438C522.473 367.438 521.946 367.265 521.556 366.921C521.166 366.573 520.971 366.122 520.971 365.568H522.176C522.176 365.814 522.248 366.032 522.392 366.222C522.537 366.409 522.784 366.503 523.135 366.503C523.48 366.503 523.726 366.409 523.873 366.222C524.024 366.035 524.1 365.817 524.1 365.568Z" fill="#4E5D7C" fill-opacity="0.5"/>
<path d="M580.54 226.395H623.171V279.684C623.171 284.393 619.354 288.211 614.645 288.211H589.066C584.357 288.211 580.54 284.393 580.54 279.684V226.395Z" fill="#E74C3C"/>
<path d="M290.686 365.608H292.531L295.739 373.441H295.857L299.065 365.608H300.91V375.685H299.464V368.393H299.37L296.398 375.67H295.198L292.226 368.388H292.133V375.685H290.686V365.608ZM305.202 375.852C304.723 375.852 304.29 375.763 303.903 375.586C303.516 375.406 303.209 375.145 302.983 374.804C302.76 374.463 302.648 374.045 302.648 373.549C302.648 373.123 302.73 372.772 302.894 372.496C303.058 372.221 303.28 372.003 303.558 371.842C303.837 371.681 304.149 371.56 304.493 371.478C304.838 371.396 305.189 371.333 305.546 371.291C305.999 371.238 306.366 371.196 306.648 371.163C306.93 371.127 307.135 371.069 307.263 370.991C307.391 370.912 307.455 370.784 307.455 370.607V370.572C307.455 370.143 307.334 369.81 307.091 369.574C306.852 369.338 306.494 369.219 306.019 369.219C305.523 369.219 305.133 369.329 304.848 369.549C304.565 369.766 304.37 370.007 304.262 370.272L302.879 369.957C303.043 369.498 303.283 369.128 303.598 368.846C303.916 368.56 304.282 368.353 304.695 368.226C305.108 368.094 305.543 368.029 305.999 368.029C306.301 368.029 306.62 368.065 306.958 368.137C307.299 368.206 307.618 368.334 307.913 368.521C308.211 368.708 308.456 368.975 308.646 369.323C308.836 369.667 308.931 370.115 308.931 370.666V375.685H307.495V374.651H307.436C307.34 374.842 307.198 375.029 307.008 375.212C306.817 375.396 306.573 375.548 306.274 375.67C305.976 375.791 305.618 375.852 305.202 375.852ZM305.522 374.671C305.928 374.671 306.276 374.591 306.565 374.43C306.857 374.269 307.078 374.059 307.229 373.8C307.383 373.538 307.46 373.257 307.46 372.959V371.985C307.408 372.037 307.306 372.086 307.155 372.132C307.008 372.175 306.839 372.213 306.648 372.245C306.458 372.275 306.273 372.303 306.092 372.329C305.912 372.352 305.761 372.372 305.64 372.388C305.354 372.424 305.094 372.485 304.857 372.57C304.624 372.655 304.438 372.778 304.296 372.939C304.159 373.097 304.09 373.306 304.09 373.569C304.09 373.933 304.224 374.209 304.493 374.395C304.762 374.579 305.105 374.671 305.522 374.671ZM310.891 378.519V368.127H312.327V369.352H312.45C312.536 369.195 312.659 369.013 312.819 368.806C312.98 368.599 313.203 368.419 313.489 368.265C313.774 368.107 314.151 368.029 314.62 368.029C315.23 368.029 315.775 368.183 316.254 368.491C316.733 368.8 317.108 369.244 317.381 369.825C317.656 370.405 317.794 371.104 317.794 371.921C317.794 372.737 317.658 373.438 317.385 374.022C317.113 374.602 316.739 375.05 316.264 375.365C315.788 375.676 315.245 375.832 314.635 375.832C314.176 375.832 313.8 375.755 313.508 375.601C313.22 375.447 312.993 375.266 312.829 375.06C312.665 374.853 312.539 374.669 312.45 374.509H312.362V378.519H310.891ZM312.332 371.906C312.332 372.437 312.409 372.903 312.564 373.303C312.718 373.703 312.941 374.017 313.233 374.243C313.525 374.466 313.882 374.578 314.305 374.578C314.745 374.578 315.112 374.461 315.408 374.228C315.703 373.992 315.926 373.672 316.077 373.269C316.231 372.865 316.308 372.411 316.308 371.906C316.308 371.407 316.232 370.96 316.082 370.563C315.934 370.166 315.711 369.853 315.412 369.623C315.117 369.393 314.748 369.278 314.305 369.278C313.879 369.278 313.518 369.388 313.223 369.608C312.931 369.828 312.71 370.135 312.559 370.528C312.408 370.922 312.332 371.381 312.332 371.906Z" fill="#4E5D7C" fill-opacity="0.5"/>
<path d="M286.382 116.619C286.382 111.91 290.199 108.093 294.908 108.093H320.487C325.196 108.093 329.013 111.91 329.013 116.619V225.329H286.382V116.619Z" fill="#27AE60"/>
<path d="M597.634 365.608H599.139V373.008H599.233L604.36 365.608H605.767V375.685H604.246V368.294H604.153L599.036 375.685H597.634V365.608ZM611.67 371.325V372.605H607.64V371.325H611.67ZM608.836 368.127V375.685H607.365V368.127H608.836ZM613.972 375.837C613.27 375.837 612.657 375.673 612.132 375.345C611.607 375.017 611.201 374.561 610.912 373.977C610.623 373.39 610.479 372.709 610.479 371.935C610.479 371.155 610.623 370.472 610.912 369.889C611.201 369.301 611.607 368.846 612.132 368.521C612.657 368.193 613.27 368.029 613.972 368.029C614.678 368.029 615.291 368.193 615.813 368.521C616.337 368.846 616.744 369.301 617.033 369.889C617.325 370.472 617.471 371.155 617.471 371.935C617.471 372.709 617.325 373.39 617.033 373.977C616.744 374.561 616.337 375.017 615.813 375.345C615.291 375.673 614.678 375.837 613.972 375.837ZM613.972 374.578C614.448 374.578 614.837 374.458 615.139 374.218C615.444 373.976 615.668 373.654 615.813 373.254C615.957 372.854 616.029 372.414 616.029 371.935C616.029 371.453 615.957 371.012 615.813 370.612C615.668 370.208 615.444 369.885 615.139 369.643C614.837 369.4 614.448 369.278 613.972 369.278C613.5 369.278 613.111 369.4 612.806 369.643C612.501 369.885 612.277 370.208 612.132 370.612C611.988 371.012 611.916 371.453 611.916 371.935C611.916 372.414 611.988 372.854 612.132 373.254C612.277 373.654 612.501 373.976 612.806 374.218C613.111 374.458 613.5 374.578 613.972 374.578ZM624.327 371.271V372.545H620.233V371.271H624.327ZM620.647 368.127V375.685H619.205V368.127H620.647ZM625.355 368.127V375.685H623.919V368.127H625.355ZM628.43 370.725H630.625C631.55 370.725 632.262 370.955 632.76 371.414C633.259 371.873 633.508 372.465 633.508 373.19C633.508 373.662 633.397 374.087 633.173 374.464C632.95 374.842 632.624 375.14 632.194 375.36C631.765 375.576 631.242 375.685 630.625 375.685H627.323V368.127H628.765V374.415H630.625C631.048 374.415 631.396 374.305 631.668 374.086C631.94 373.862 632.076 373.579 632.076 373.234C632.076 372.87 631.94 372.573 631.668 372.344C631.396 372.111 631.048 371.994 630.625 371.994H628.43V370.725Z" fill="#4E5D7C" fill-opacity="0.5"/>
<path d="M388.698 226.395H431.329V335.105C431.329 339.814 427.512 343.632 422.803 343.632H397.224C392.515 343.632 388.698 339.814 388.698 335.105V226.395Z" fill="#E74C3C"/>
</g>
</svg>
