<?xml version="1.0" encoding="UTF-8"?>
<!DOCTYPE svg PUBLIC "-//W3C//DTD SVG 1.1//EN" "http://www.w3.org/Graphics/SVG/1.1/DTD/svg11.dtd">
<!-- Creator: CorelDRAW -->
<svg xmlns="http://www.w3.org/2000/svg" xml:space="preserve" width="100px" height="100px" version="1.1" style="shape-rendering:geometricPrecision; text-rendering:geometricPrecision; image-rendering:optimizeQuality; fill-rule:evenodd; clip-rule:evenodd"
viewBox="0 0 100 100"
 xmlns:xlink="http://www.w3.org/1999/xlink"
 xmlns:xodm="http://www.corel.com/coreldraw/odm/2003">
 <defs>
  <style type="text/css">
   <![CDATA[
    .fil0 {fill:#D7E5FF;fill-rule:nonzero}
   ]]>
  </style>
 </defs>
 <g id="Слой_x0020_1">
  <metadata id="CorelCorpID_0Corel-Layer"/>
  <path class="fil0" d="M46.87 0l6.26 0c0.26,0.05 0.49,0.12 0.75,0.16 2.28,0.34 4.59,0.55 6.84,1.02 22.31,4.66 39.01,25 39.28,47.79 0.12,10.42 -2.53,20.04 -8.36,28.67 -7.95,11.75 -18.93,18.95 -32.93,21.58 -1.85,0.34 -3.72,0.52 -5.59,0.78l-6.25 0c-0.21,-0.07 -0.43,-0.12 -0.65,-0.15 -8.67,-0.66 -16.68,-3.34 -23.87,-8.22 -11.74,-7.97 -18.96,-18.94 -21.57,-32.92 -0.34,-1.85 -0.52,-3.72 -0.78,-5.58l0 -6.26c0.22,-1.7 0.39,-3.41 0.68,-5.1 1.75,-10.34 6.29,-19.29 13.64,-26.77 7.49,-7.61 16.52,-12.4 27.06,-14.23 1.82,-0.32 3.66,-0.51 5.49,-0.77zm2.47 65.83c4.03,2.97 7.98,5.89 11.94,8.8 2.61,1.91 4.45,1.2 5.13,-1.97 2.52,-11.89 5.05,-23.78 7.56,-35.68 0.37,-1.53 0.58,-3.11 0.62,-4.69 0,-1.6 -1.38,-2.46 -2.95,-2.08 -0.41,0.1 -0.81,0.24 -1.2,0.4 -12.28,4.71 -24.56,9.44 -36.84,14.18 -3.82,1.48 -7.64,2.95 -11.43,4.48 -0.87,0.34 -1.85,0.86 -1.78,1.97 0.08,1.1 1.15,1.41 2.04,1.69 3.78,1.2 7.57,2.34 11.35,3.56 0.28,0.1 0.59,0.13 0.88,0.09 0.3,-0.04 0.59,-0.16 0.83,-0.34 6.49,-4.1 12.98,-8.2 19.48,-12.28 2.73,-1.72 5.45,-3.44 8.17,-5.16 0.63,-0.39 1.27,-0.78 2.23,-0.22 -0.43,0.44 -0.75,0.83 -1.12,1.16 -7.2,6.51 -14.4,13 -21.61,19.49 -0.33,0.27 -0.61,0.61 -0.79,0.99 -0.19,0.39 -0.29,0.81 -0.29,1.24 -0.09,2.31 -0.32,4.61 -0.48,6.92 -0.1,1.47 -0.19,2.95 -0.28,4.42l0.28 0.26c0.69,-0.42 1.47,-0.75 2.06,-1.3 2.08,-1.91 4.09,-3.91 6.2,-5.93z"/>
 </g>
</svg>
