<?xml version="1.0" encoding="UTF-8"?>
<!DOCTYPE svg PUBLIC "-//W3C//DTD SVG 1.1//EN" "http://www.w3.org/Graphics/SVG/1.1/DTD/svg11.dtd">
<!-- Creator: CorelDRAW -->
<svg xmlns="http://www.w3.org/2000/svg" xml:space="preserve" width="100px" height="72px" version="1.1" style="shape-rendering:geometricPrecision; text-rendering:geometricPrecision; image-rendering:optimizeQuality; fill-rule:evenodd; clip-rule:evenodd"
viewBox="0 0 100 71.88"
 xmlns:xlink="http://www.w3.org/1999/xlink"
 xmlns:xodm="http://www.corel.com/coreldraw/odm/2003">
 <defs>
  <style type="text/css">
   <![CDATA[
    .fil0 {fill:#D7E5FF;fill-rule:nonzero}
   ]]>
  </style>
 </defs>
 <g id="Слой_x0020_1">
  <metadata id="CorelCorpID_0Corel-Layer"/>
  <path class="fil0" d="M0 7.79l0.81 -2.54 30.21 30.6 -30.24 30.61c-0.2,-0.62 -0.49,-1.5 -0.78,-2.38l0 -56.29zm99.32 -2.47c0.21,1.07 0.64,2.28 0.65,3.49 0.04,18.09 0.04,36.18 0,54.28 0,1.2 -0.44,2.41 -0.68,3.63l-30.31 -30.71 30.34 -30.69zm-4.4 65.83c-1.16,0.26 -2.16,0.49 -3.17,0.69 -0.38,0.04 -0.77,0.05 -1.16,0.02 -27.08,0 -54.15,0 -81.22,-0.02 -1.37,0 -2.73,-0.34 -4.33,-0.55l30.39 -30.74 -0.19 -0.29c0.23,0.22 0.47,0.44 0.69,0.67 2.32,2.37 4.74,4.66 6.94,7.15 3.89,4.41 10.42,4.35 14.31,-0.03 2.4,-2.7 5.05,-5.17 7.44,-7.58l30.3 30.68zm-89.64 -70.58c1.3,-0.18 2.61,-0.53 3.89,-0.53 7.39,-0.05 14.78,-0.02 22.18,-0.02 19.75,-0.01 39.5,-0.02 59.25,-0.02 1.44,0 2.83,0.15 4.3,0.91 -1.41,1.41 -2.73,2.73 -4.04,4.06 -12.74,13.08 -25.5,26.15 -38.26,39.22 -1.56,1.62 -3.61,1.63 -5.17,0.02 -13.88,-14.22 -27.76,-28.44 -41.64,-42.67 -0.18,-0.19 -0.35,-0.38 -0.52,-0.57l0.01 -0.4z"/>
 </g>
</svg>
