<?xml version="1.0" encoding="UTF-8"?>
<!DOCTYPE svg PUBLIC "-//W3C//DTD SVG 1.1//EN" "http://www.w3.org/Graphics/SVG/1.1/DTD/svg11.dtd">
<!-- Creator: CorelDRAW -->
<svg xmlns="http://www.w3.org/2000/svg" xml:space="preserve" width="100px" height="100px" version="1.1" style="shape-rendering:geometricPrecision; text-rendering:geometricPrecision; image-rendering:optimizeQuality; fill-rule:evenodd; clip-rule:evenodd"
viewBox="0 0 100 100"
 xmlns:xlink="http://www.w3.org/1999/xlink"
 xmlns:xodm="http://www.corel.com/coreldraw/odm/2003">
 <defs>
  <style type="text/css">
   <![CDATA[
    .fil0 {fill:#D7E5FF;fill-rule:nonzero}
   ]]>
  </style>
 </defs>
 <g id="Слой_x0020_1">
  <metadata id="CorelCorpID_0Corel-Layer"/>
  <path class="fil0" d="M0 52.36l0 -5.28c0.06,-0.34 0.13,-0.69 0.18,-1.03 0.32,-2.19 0.51,-4.41 0.98,-6.55 2.63,-12.08 8.88,-21.95 18.76,-29.35 12.12,-9.07 25.75,-12.07 40.58,-8.97 11.96,2.49 21.69,8.76 29.13,18.43 8.03,10.44 11.37,22.32 10.11,35.4 -1.01,10.57 -5.1,19.9 -12.13,27.88 -7.75,8.81 -17.42,14.28 -28.99,16.34 -1.88,0.33 -3.79,0.52 -5.68,0.77l-5.47 0c-1.42,-0.15 -2.85,-0.28 -4.26,-0.49 -7.04,-0.94 -13.8,-3.41 -19.79,-7.23 -0.27,-0.2 -0.58,-0.33 -0.92,-0.37 -0.33,-0.04 -0.66,-0.01 -0.98,0.11 -5.71,1.87 -11.43,3.67 -17.15,5.51 -0.32,0.1 -0.64,0.2 -1.08,0.33 2,-5.95 3.91,-11.7 5.87,-17.44 0.26,-0.78 0.24,-1.35 -0.26,-2.06 -4.15,-5.89 -6.92,-12.63 -8.12,-19.74 -0.35,-2.07 -0.52,-4.18 -0.78,-6.26zm66.33 25.86l0.06 -0.23c0.58,-0.01 1.17,-0.04 1.75,-0.11 0.8,-0.12 1.6,-0.3 2.37,-0.55 7.04,-2.48 9.44,-5.85 9.63,-12.41 0.03,-1 -0.35,-1.67 -1.25,-2.1 -3.73,-1.78 -7.43,-3.6 -11.17,-5.35 -1.95,-0.9 -3.07,-0.53 -4.36,1.23 -0.95,1.28 -1.88,2.57 -2.86,3.83 -1.54,1.95 -2.61,2.22 -4.91,1.29 -8.37,-3.42 -14.54,-9.3 -19.17,-16.95 -0.62,-1.03 -0.54,-1.97 0.23,-2.86 0.9,-1.04 1.78,-2.08 2.72,-3.07 1.55,-1.64 1.93,-3.31 0.89,-5.48 -1.71,-3.57 -3.11,-7.28 -4.71,-10.9 -0.25,-0.54 -0.79,-1.19 -1.31,-1.31 -2.63,-0.64 -5.36,-0.78 -7.55,1.02 -4.86,3.99 -6.36,9.32 -5.45,15.4 0.49,3.26 1.79,6.25 3.53,9.03 3.78,6.12 8.38,11.7 13.68,16.58 6.13,5.6 13.34,9.19 21.25,11.49 2.18,0.61 4.42,0.97 6.63,1.45z"/>
 </g>
</svg>
