<?xml version="1.0" encoding="UTF-8"?>
<!DOCTYPE svg PUBLIC "-//W3C//DTD SVG 1.1//EN" "http://www.w3.org/Graphics/SVG/1.1/DTD/svg11.dtd">
<!-- Creator: CorelDRAW -->
<svg xmlns="http://www.w3.org/2000/svg" xml:space="preserve" width="14mm" height="26.5mm" version="1.1" style="shape-rendering:geometricPrecision; text-rendering:geometricPrecision; image-rendering:optimizeQuality; fill-rule:evenodd; clip-rule:evenodd"
viewBox="0 0 1399.96 2649.92"
 xmlns:xlink="http://www.w3.org/1999/xlink"
 xmlns:xodm="http://www.corel.com/coreldraw/odm/2003">
 <defs>
  <style type="text/css">
   <![CDATA[
    .str0 {stroke:#5051F9;stroke-width:150;stroke-miterlimit:22.9256}
    .fil0 {fill:none}
   ]]>
  </style>
 </defs>
 <g id="Слой_x0020_1">
  <metadata id="CorelCorpID_0Corel-Layer"/>
  <g id="_2165409269200">
   <line class="fil0 str0" x1="1211.34" y1="1107.52" x2="188.71" y2= "1107.52" />
   <line class="fil0 str0" x1="188.71" y1="1922.79" x2="1211.34" y2= "1922.79" />
   <path class="fil0 str0" d="M1211.34 1922.79c30.14,0 59.04,11.43 80.36,31.82 21.31,20.39 33.27,48.04 33.27,76.87l0 380.42c0,43.26 -17.94,84.71 -49.93,115.28 -31.95,30.6 -75.29,47.76 -120.52,47.76l-909.07 0c-45.19,0 -88.52,-17.16 -120.52,-47.76 -31.95,-30.57 -49.93,-72.02 -49.93,-115.28l0 -380.42c0,-28.83 12,-56.48 33.31,-76.87 21.28,-20.39 50.18,-31.82 80.32,-31.82l0 -815.23c-30.14,0 -59.04,-11.44 -80.32,-31.83 -21.31,-20.39 -33.31,-48.03 -33.31,-76.86l0 -217.38c0,-86.49 35.91,-169.43 99.86,-230.55 63.95,-61.17 150.66,-95.52 241.07,-95.52l568.14 0c90.42,0 177.12,34.35 241.07,95.52 63.91,61.13 99.82,144.07 99.82,230.55l0 217.38c0,28.83 -11.96,56.47 -33.27,76.86 -21.32,20.39 -50.22,31.83 -80.36,31.83l0 815.23z"/>
   <path class="fil0 str0" d="M984.07 455.42l0 -271.73c0,-28.83 -11.95,-56.47 -33.27,-76.86 -21.32,-20.39 -50.22,-31.83 -80.36,-31.83l-340.89 0c-30.14,0 -59.04,11.44 -80.36,31.83 -21.31,20.39 -33.27,48.03 -33.27,76.86l0 271.73"/>
  </g>
 </g>
</svg>
